<svg width="1269" height="106" viewBox="0 0 1269 106" fill="none" xmlns="http://www.w3.org/2000/svg">
<path fill-rule="evenodd" clip-rule="evenodd" d="M53.4741 0.994385L81.7374 51.8973L219.595 80.6667L240.396 43.9834L270.28 72.1756L356.519 28.9306L527.804 80.2232L623.827 52.5076L613.871 88.5297L733.899 80.7269L834.092 104.257L792.689 28.5944L950.498 80.6745L1010.99 35.7161L1099.5 98.0559L1165.59 54.2477L1117.34 36.8035L1117.68 35.863L1166.63 53.5596L1203.94 28.8291L1268.35 90.3769L1267.83 91.2086L1166.76 54.6711L1099.48 99.267L1011 36.9504L950.678 81.7869L794.783 30.3387L836.045 105.743L733.815 81.7345L613.589 89.5502L609.146 105.625L565.832 92.6548L465.758 99.1604L465.587 98.1811L526.029 80.7355L356.612 30.0025L270.103 73.3832L240.637 45.5856L220.105 81.7947L82.3789 53.0528L101.337 87.1961L26.6568 48.3216L1.4304 90.9928L0.56958 90.4839L25.7685 47.8592L4.47845 36.7767L4.81146 35.8438L29.7901 41.0565L53.4741 0.994385ZM29.2525 41.9659L8.15464 37.563L26.2781 46.9971L29.2525 41.9659ZM27.1664 47.4596L30.2866 42.1817L81.0852 52.7828L98.8474 84.773L27.1664 47.4596ZM80.4437 51.6273L30.8242 41.2723L53.4469 3.00541L80.4437 51.6273ZM527.799 81.2655L470.293 97.8634L563.082 91.8314L527.799 81.2655ZM568.696 92.4686L608.454 104.374L612.532 89.6189L568.696 92.4686ZM612.814 88.5984L565.946 91.6452L529.574 80.7532L622.387 53.964L612.814 88.5984ZM1167.8 53.983L1265.94 89.4623L1203.83 30.104L1167.8 53.983Z" fill="white"/>
</svg>
