<?xml version="1.0" encoding="utf-8"?>
<!-- Generator: Adobe Illustrator 25.2.1, SVG Export Plug-In . SVG Version: 6.00 Build 0)  -->
<svg version="1.1" id="Layer_1" xmlns="http://www.w3.org/2000/svg" xmlns:xlink="http://www.w3.org/1999/xlink" x="0px" y="0px"
	 viewBox="0 0 1031 1043" style="enable-background:new 0 0 1031 1043;" xml:space="preserve">
<style type="text/css">
	.st0{opacity:7.653525e-02;}
	.st1{fill-rule:evenodd;clip-rule:evenodd;fill:#370214;}
	.st2{fill-rule:evenodd;clip-rule:evenodd;fill:#192F35;}
</style>
<g id="Page-1" class="st0">
	<g id="Desktop-Copy-2" transform="translate(505.000000, 205.000000)">
		
			<g id="Group-15-Copy" transform="translate(10.658819, 316.146464) scale(-1, 1) rotate(240.000000) translate(-10.658819, -316.146464) translate(-376.841181, -54.853536)">
			<path id="Fill-1" class="st1" d="M61.1,1032c5-5.3,4.6-11.3,2.9-17.6c-0.6-2.3-1.4-4.7-1.4-7c0.3-8-4-13.6-9.3-18.7
				c-3.4-3.3-6.9-6.7-10.7-9.7c-9.1-7.1-14.3-16.1-15.2-27.6c-0.7-9.3-1.6-18.7-2.8-28c-2.1-15.6-2.3-31.3-2-46.9
				c0.1-5.9,0.9-11.8,1.2-17.7c0.3-5.8,0.7-11.6,0.8-17.5c0-2.4,0.7-4.2,2.8-5.4c2.4-1.3,3.4-3.3,3.6-6.1
				c1.6-23,11.1-42.5,26.4-59.4c8.7-9.6,14.3-21.2,20.9-32.2c11.8-19.7,27.8-34.5,50.4-41c11.2-3.2,22.5-6,33.7-9.1
				c8.9-2.5,17.6-5.6,26.6-7.8c10.5-2.6,20.7-1.8,30,4.3c7.9,5.2,17.1,7,25.7,10.3c6.5,2.5,12.7,5.6,18.8,9.1
				c7.5,4.3,13.4,10.4,17.1,18.3c7.4,16,19.7,27,35.4,34.5c3.6,1.7,5.6,4.8,6.6,8.4c2,7.5,5,14.3,9.4,20.8c1.9,2.8,2.1,6.9,3.1,10.4
				c0.8,3.2,1.4,6.5,2.5,9.6c0.6,1.6,1.8,3.2,3.2,4.3c2.1,1.6,3.7,0.8,3.7-1.9c0-12.6-1.4-24.7-10.5-34.6
				c-4.6-5.1-7.2-11.1-8.2-17.8c-1.2-7.5-4.7-13.5-11.3-17.6c-1.7-1-3.1-2.3-4.7-3.4c-9.9-6.6-16.7-15.3-20.5-26.7
				c-2.2-6.6-5.6-12.8-8.4-19.1c-1.2-2.6-3.1-3.8-6-3.5c-4.6,0.5-8-1.7-11.5-4.4c-10.2-8-20.2-16.2-30.9-23.4
				c-6.3-4.3-13.3-7.9-20.5-10.1c-12.4-3.8-24.9-4.4-37.2,2.3c-14.9,8.1-30.5,14.8-47.6,16.6c-4.1,0.4-8.2,0.4-12.3,0.4
				c-11.7,0-22.1,3.3-31.7,10.1c-20.7,14.6-37.7,33-53.8,52.2c-6.9,8.2-13.1,17-19.7,25.5c-0.9,1.1-2,2-3,3
				c-0.4-0.2-0.8-0.3-1.2-0.5c0.4-2.1,0.6-4.3,1.3-6.3c1.5-4.7,2.9-9.4,4.8-13.9c1.7-4.1,3.7-8,5.8-12c3.8-7.2,7.4-14.5,11.8-21.3
				c3.3-5.1,7.7-9.7,12-14C51.6,679,61.2,667.6,67,653.5c6.4-15.4,16.7-28.3,25.9-42c7.6-11.4,18-19.5,29.7-26.5
				c12-7.1,25.1-9.6,38.4-11.9c6.4-1.1,12.7-2.8,19.2-3.7c12.9-1.9,25.3-0.8,37.8,3.5c16.7,5.8,31.2,15.2,45.7,24.8
				c15.1,9.9,13.3,7.7,17.7,23.8c1.7,6.3,5.4,12,8.1,18c0.5,1.2,0.4,2.7,0.9,3.9c1,2.7,1.8,5.7,3.5,7.8c2.5,3.1,5.9,5.4,8.7,8.3
				c8,8.1,12.9,17.6,12.6,29.3c-0.1,4.7-0.2,9.4-0.2,14.1c0,2.5,0.8,4.9,3.6,5.6c2.8,0.8,3.7-1.6,4.8-3.4c5.2-8.8,5.5-17.6,2-27.3
				c-4.2-11.5-10.4-21.4-17.4-31.3c-8.7-12.1-14-25.8-13.6-41.3c0.1-4-1.3-8.1-2.1-12.1c-1-5.3-2.4-10.5-3-15.8
				c-0.9-7.2-4.8-13-7.9-19.2c-0.2-0.4-0.6-0.8-1-1c-5.8-2.5-8.4-7.9-11.6-12.7c-7.3-11-15.2-21.5-25.1-30.3
				c-3.1-2.7-4.7-7.1-7.2-10.6c-0.7-1-2-1.9-3.2-2.3c-1.8-0.5-3.8-0.5-5.8-0.7c-2.5-0.2-3.5-1.7-3.8-4.4c2.2,0,4.3-0.4,6.2,0.1
				c12.5,2.8,25,5.6,37.3,8.9c11.4,3,21.6,8.4,29.1,17.8c7.1,8.9,15.9,16.1,24.7,23.2c6.6,5.4,12.4,11.8,18.4,18
				c5,5.3,7.1,11.9,7.1,19.2c-0.1,6.1-0.1,12.1,0.1,18.2c0.1,3.9,0.1,7.9,1.3,11.5c2.2,7.1,2.7,14.4,2.4,21.7
				c-0.7,16.3,0.5,32.3,4.9,48.2c1.7,6,1.4,12.7,1.5,19c0.1,6.4-3.1,11.6-7.2,16.3c-1.9,2.1-3.7,4.3-5.7,6.4
				c-5.7,6-7.4,13.3-6.4,21.3c0.5,4.2,0.9,8.5,2.2,12.5c1.1,3.4,2.8,7,5.2,9.5c6.6,7,9,15.4,9.7,24.7c0.3,4.3,1.2,8.6,2.1,12.8
				c0.8,3.5,2.3,4.4,6.2,3.7c0.6-12.4,0.5-24.6-5.7-36c-0.3-0.6-0.6-1.3-1-1.8c-6.4-9.2-6.5-19.7-5.4-30.1c0.8-7.4,6-11.8,12.9-14.2
				c1.7-0.6,3.5-0.9,5.3-1.6c5.6-2.1,7.8-5.5,5.4-11c-3.4-7.7-2.9-15.6-3-23.6c0-13.3,0.4-26.6-0.2-39.9c-0.4-8.6-2.6-17.2-3.5-25.8
				c-0.6-6-0.7-12.1-0.3-18.1c0.1-2.3,1.6-4.8,3.1-6.7c13-18.3,27-35.6,45.8-48.3c0.1-0.1,0.2-0.1,0.3-0.2c5.5-5.8,12.4-8.3,20.3-9
				c7.2-0.7,14.3-2.8,21.6-3.7c5.5-0.7,11.1-0.9,16.7-0.6c25.6,1.6,50.7,7.4,76.5,7c5-0.1,10.1,0.4,14.9,1.7
				c17.4,4.7,26.7,17.3,30.5,34.1c1.1,4.6,1.1,9.5,0.8,14.2c-0.2,3.7-2.2,5-5.9,4.6c-2.2-0.3-4.5-0.9-6.5-1.9
				c-4.5-2.3-8.6-5.2-13.1-7.4c-5-2.4-10.1-4.9-15.5-6.4c-8.9-2.5-17.5-0.4-25,4.4c-10.1,6.6-19.9,13.9-29.4,21.3
				c-9.3,7.2-18.7,14-29.6,18.5c-5.3,2.2-9.2,6-10.4,11.5c-2.1,9.7-4,19.5-5.5,29.3c-2,12.9-5.4,25.3-12.5,36.4
				c-11.3,17.7-27.9,26.8-48.4,29.6c-5.5,0.7-11.1,1.5-16.6,2.7c-6,1.3-10.8,5-15.1,9.2c-4,3.9-3.2,7.2,2,9.4
				c4.5,1.9,9.1,2.2,13.7,0.4c2.2-0.9,4.6-1.7,6.5-3c9.6-6.3,20.3-9.7,31.3-12.8c26.3-7.3,43.5-25.2,54.9-49.2
				c3.9-8.2,6.8-16.7,10.5-25c5.2-11.6,13.6-19.9,25.4-24.8c4-1.7,8.1-3.2,12-5.2c7.1-3.5,14.2-6.9,21-10.8
				c6.7-3.9,13.3-6.3,21.4-5.2c12.2,1.7,23.6-0.7,34.5-7.2c12.1-7.3,25-13.3,37.8-19.5c3.6-1.8,7.8-2.5,11.8-3.1
				c4.6-0.6,8.7,0.7,11,5.3c0.2,0.5,0.7,1,1.1,1.3c6.7,3.4,9.2,10,12.2,16.1c3,6,8.4,9.6,12.9,14.1c4,4.1,8.4,7.7,12.4,11.8
				c1.5,1.6,2.6,3.8,3.4,5.9c4.1,11.2,7.9,22.4,13.7,32.9c3.5,6.3,6.2,13.3,8.2,20.3c1.4,5.2,1.1,10.8,1.2,16.3
				c0.2,9.4,0.1,18.8,0.2,28.1c0,2.2,0,4.3,0,6.5c-0.6,0.1-1.1,0.3-1.7,0.4c-0.9-1.5-2.1-3-2.8-4.6c-4.8-11.6-9.8-23.2-14.2-34.9
				c-3.2-8.5-8.7-15-15.4-20.7c-5.2-4.4-11.3-3.7-17.3-2.5c-1.3,0.3-2.7,0.7-3.9,1.3c-15.5,8.2-31.8,6.8-48.3,4.1
				c-6.2-1-12.5-1.1-18.8-1.4c-16.7-0.8-33.4-1.7-50-2.3c-13.1-0.5-25.2,3.4-37.1,8.7c-11.2,5-22.9,9.2-34.2,14.2
				c-3.8,1.7-7.4,4.1-10.4,6.9c-4.8,4.4-8.8,9.6-13.4,14.3c-6.1,6.3-13.8,9.8-22.2,12.4c-14.9,4.7-29.7,9.8-44.4,15.1
				c-3.7,1.3-7.1,3.8-10,6.4c-4,3.7-3.7,8.9,0,11.6c2.4,1.7,4.7,1.8,6.8-0.4c1.3-1.4,2.7-2.9,3.8-4.5c6.2-8.9,14.7-12.6,25.4-13.2
				c7.8-0.4,15.7-1.6,23.3-3.4c9.6-2.2,17.6-7.6,23.3-15.9c7-10.2,16.8-16.5,28.1-21.1c22.3-9.2,45.5-13.5,69.6-14
				c10.1-0.2,20.1-0.9,30.2-0.9c8.7-0.1,17.4,0.3,25.8,3.2c5.9,2.1,11,5.3,14.4,10.6c4,6.3,9.3,9.2,16.8,8c4.5-0.7,7.8,1.2,10,5.1
				c0.7,1.3,1.6,2.5,2.1,3.9c4.6,13,12,24.7,18.5,36.7c5.2,9.6,8.5,19.4,7.4,30.8c-0.8,7.8,1.5,15.9,1.5,23.9
				c0,15.2-0.7,30.4-1.1,45.7c-0.2,6.8-0.1,13.5-0.1,20.3c0,14.8-0.1,29.6,0.2,44.3c0.2,10.1-3.8,18.2-10.9,24.6
				c-15.9,14.3-32.1,28.4-48.3,42.4c-7.5,6.5-16.1,11.3-26.1,13.1c-1.7,0.3-3.4,0.5-5.1,0.5c-12.6,0.1-25.2,0-37.8,0.2
				c-3.2,0-4.9-1.1-5.4-4.4c-1.1-6.1,0.5-9.1,6.3-11.1c3.7-1.3,4.4-3.6,1.8-6.4c-2.9-3.1-6.4-5.3-10.8-5.3c-7.3-0.1-14.7,0.2-22,0
				c-2.5-0.1-5.1-0.9-7.3-2c-4.6-2.1-9-4.5-13.5-6.8c-8-3.9-13-10.8-16.5-18.5c-4.4-9.8-4.1-20.2-1.2-30.5c0.5-1.8,0.7-3.8,0.8-5.7
				c0.3-5.9,0.3-11.9,0.8-17.8c0.1-2,0.9-4,1.8-5.8c2.9-5.6,6.1-10.9,8.9-16.5c4-8,6.6-16.4,7-25.3c0.4-9.5,0-19,0.1-28.4
				c0-1.7,0.7-3.3,1.1-5c1.8,0.9,4.1,1.5,5.4,2.9c1.5,1.6,2.5,3.9,3.1,6c3.4,10.4,6.7,20.9,9.7,31.4c0.9,3,1,6.3,1.1,9.5
				c0.3,9.8,0.1,19.7,0.6,29.5c0.3,6.4,2.5,8.4,8.8,9.3c6.3,0.9,12.6,2.1,18.9,2.5c9,0.6,16.6-3.4,23.2-9.2
				c6.3-5.5,11.4-11.9,16.5-18.6c6-7.9,5.8-16.1,5.4-25c-0.6-13.2-0.6-26.5-1-39.7c0-1.7-0.3-3.8-1.2-5.1c-3.7-4.9-8.3-8.9-14-11.4
				c-6.4-2.8-10.6,0-10.6,7c0,7.8,1,15.5,3.9,22.9c5.7,14.7,3.5,28.5-5.1,41.4c-0.4,0.7-0.9,1.3-1.4,1.9c-3.8,4.7-6.4,4.4-9.6-0.7
				c-2.8-4.5-5.8-9-9.3-13.1c-5.4-6.4-7-14-8.4-21.8c-1.6-8.8-2.4-17.7-4.3-26.4c-1.1-5.3-3.3-10.5-5.5-15.5c-0.9-2.1-3-4.1-5.1-5.3
				c-6.5-4.1-13.6-6.4-21.3-6.7c-5.9-0.2-11.9-0.2-17.9-0.1c-3.4,0-7.8,4.8-8.7,9.5c-1,5.1-0.8,10.1,1.6,14.7
				c2,4.1,2.7,8.4,1.1,12.7c-5.5,14.4-5.1,29.4-5,44.4c0.1,13.4-1.7,26.4-6.4,39.1c-2,5.5-3.3,11.2-4.8,16.8
				c-0.6,2.1-0.8,4.2-1.2,6.5c-3.9-0.8-5.3-3.7-6.5-6.6c-3.6-8.7-4.9-17.9-4.1-27.3c0.9-10.9,2.6-21.8,3.8-32.7
				c1.3-12,0.6-23.7-4.3-35c-3.6-8.3-9.3-14.2-18.2-16.3c-9-2.1-16.2-6.6-21.7-14.1c-1-1.4-2.3-2.5-3.6-3.7c-5.5-5-9-5.3-15.9-2.4
				c-3.5,1.5-7.4,2.2-11.1,3.4c-2.8,0.9-5.7,1.8-8.1,3.4c-2.5,1.7-2.2,3.9,0.4,5.4c1.9,1.1,4,1.6,6,2.5c3.9,1.8,8,3.3,11.5,5.8
				c5.3,3.7,11,5.8,17.2,7.3c5.2,1.3,10.4,3.4,15.1,6.1c9.5,5.4,14.1,14.1,14,24.8c-0.1,23.8,0.1,47.6-1.4,71.4
				c-1.3,20.8,4.8,37.8,20.6,51.3c4.8,4.1,9.7,8.1,14.9,11.6c10,6.5,16.9,15.4,21.1,26.3c4.5,11.7,9.3,23.5,8.6,36.5
				c-0.2,3.1-1.5,6.4-3.1,9.1c-4.4,7.2-9.8,13.8-13.8,21.2c-11.2,20.3-28.9,28.2-51.1,27.3c-6.7-0.3-13.3-3.2-20-4
				c-10.8-1.3-16.6-8.2-21-17.1c-0.9-1.7-2.4-3.2-3.1-4.9c-1.6-4.2-3.7-8.5-4.2-12.9c-0.7-7-0.2-14.2-0.1-21.3
				c0.1-6.7,2.2-10.1,6.9-11.3c2.8-0.8,4.7-0.1,5.3,3c1,4.7,2.3,9.3,3.2,14c1.4,7.5,8.3,13.5,15.9,13.5c3,0,6,0.2,8.9,0
				c5.3-0.3,9.6-2.8,12.3-7.1c1.2-1.9,1.3-4.7,1.2-7.1c-0.2-3.3-1-6.5-1.6-9.7c-1.1-5.5-3.1-10.8-8.4-13.1
				c-13.7-6.2-22.2-17.3-29.2-29.9c-7.8-14-11.7-29.2-13.2-45.1c-2.2-23.4-0.9-46.9-0.8-70.4c0-10.5-0.4-21.1-0.5-31.6
				c0-5.3,0.7-10.5,0.7-15.8c0-10.2-8-17.1-18.1-15.6c-0.8,0.1-2.1,1.7-1.9,2.3c0.7,2.1,1.3,4.7,2.9,6c9.9,8.4,9.5,19,6.3,29.9
				c-3.8,13-7.2,26-9.4,39.3c-0.5,3-1.7,6-3.2,8.6c-0.8,1.4-3.1,3-4.4,2.7c-1.6-0.3-3.5-2.2-4.1-3.8c-0.9-2.5-1.1-5.4-1-8.1
				c0.4-11.6,0.3-23.4,1.6-34.9c0.9-7.3,4.2-14.2,6.2-21.3c1.2-4.2,1.6-8.6-1-12.6c-2.3-3.5-4.6-3.9-7.4-0.9c-1.2,1.2-2.6,2.5-3.2,4
				c-2,5.3-6.8,7.1-11.1,9.7c-2,1.2-3.9,1-5.5-0.9c-4.8-5.5-11-6.4-17.8-5.5c-5.6,0.8-11.3,1.3-16.9,2.3c-1.9,0.3-4.7,1.6-5.1,3
				c-0.6,2.4-0.7,6.5,0.8,7.7c6.4,5.3,7.8,12.4,8.7,19.8c0.6,4.9,1.2,9.8,1.6,14.6c0.4,4.4-0.6,8.5-2.6,12.6
				c-1.1,2.1-1.3,4.9-1.3,7.3c0.1,4.5-1.5,7.9-4.8,10.9c-3,2.7-5.7,5.6-8.5,8.5c-4.6,4.8-7.7,10.3-8.4,17.2
				c-0.6,5.5-2.3,10.9-3.1,16.5c-0.7,4.6,2,8.3,4.7,11.4c1.1,1.3,4.3,1.4,6.3,1c3.3-0.7,5.6-3.1,6-6.7c0.3-2.1,0.1-4.3,0-6.5
				c0-1.1-0.1-2.3-0.4-3.4c-2.5-9.5,2.4-16.1,8.6-22c3-2.9,5.4-5.8,6.1-10c0.7-4,3-7.1,5.5-10.4c5.2-6.9,8.1-15,9.9-23.4
				c1.2-5.8,0.1-11.3-1.7-16.8c-1.3-4-1.8-8.2-2.4-12.4c-0.1-1,0.8-2.9,1.5-3c1.1-0.2,2.5,0.6,3.6,1.2c0.5,0.3,1,1,1.2,1.6
				c4.4,10.2,9.8,20,13,30.6c2.5,8.4,2.4,17.6,3,26.4c0.5,7.5,0.6,15.1,0.6,22.6c0,3.5-0.7,7-1.1,10.5c-0.3,2.1-0.8,4.3-0.8,6.4
				c-0.1,13.5-0.2,27,0,40.6c0.1,4.4-1.1,8.2-3.7,11.5c-6.8,8.5-13.5,17.1-20.7,25.2c-6.9,7.8-15.8,12.1-26.4,11.8
				c-6.3-0.2-13.1,1.5-18.7-2.6c-5.7-4.1-11.5-6.7-18.8-6.8c-2.6,0-5.8-2.9-7.5-5.3c-2.9-3.9-4.8-8.5-7.1-12.9
				c-0.6-1.1-1-2.4-1.8-3.3c-0.8-0.8-2.1-1.3-3.2-1.3c-0.4,0-1.1,1.5-1.4,2.4c-1.9,6-3.8,12-5.6,18c-1.8,5.9-1.5,11.6,0.9,17.4
				c1.8,4.3,2.5,9,4.1,13.4c1,2.7,2.3,5.4,3.9,7.8c4.8,6.8,9.8,13.5,14.9,20.2c7.5,9.9,17.5,16,29.4,19c6.6,1.6,12.9,1.2,19.3-1.9
				c7.3-3.6,14.7-6.8,21.3-11.6c0.7-0.5,1.6-0.7,2.9-1.4c0.1,4.9,1.5,9.3-2.1,13.3c-8.4,9.2-18,16.7-29.4,22.1
				c-9.5,4.5-19.4,7.4-29.4,10.1c-0.3,0.1-0.7,0.2-1,0.2c-9.8-0.2-19.7-0.3-29.5-0.7c-2.7-0.1-5.3-1.5-7.9-2.2
				c-5.3-1.3-10.5-2.9-15.9-3.8c-4.8-0.8-8.4-2.9-10.7-7.1c-1.7-3.1-3.4-6.3-4.6-9.6c-2.4-6.6-5.8-12.5-11-17.2
				c-5.2-4.8-4.2-10.9-4.2-17c0-9.3,0.2-18.8-1.3-28c-0.7-4.5-4.4-9-7.6-12.7c-6.8-7.8-9.4-16.5-8.1-26.6c1.1-8.6,1.4-17.4,3.2-25.8
				c2.3-10.6,5.7-20.9,8.8-31.3c0.5-1.7,1.8-3.2,2.7-4.8c2.4-4.4,4.5-8.9,7.1-13.2c2.1-3.4,4.3-6.9,7.2-9.5
				c10.9-9.6,22.3-18.7,33.2-28.2c5.1-4.4,9.9-9.2,14.2-14.3c4.6-5.4,4.6-12.4,4.8-18.9c0.4-8.3,0.3-16.7,0-25.1
				c-0.2-5.6,2-10,6.3-13c4-2.9,8.7-5,13.1-7.4c1.8-1,4-1.5,5.5-2.8c7.7-6.9,16.8-7.5,26.4-6.6c2.2,0.2,4.4,0.6,6.5,0.3
				c1.4-0.2,2.6-1.3,3.9-2c-1.2-0.9-2.2-2.2-3.5-2.5c-6.1-1.3-12.3-2.3-18.5-3.5c-2.8-0.5-5.6-1.2-8.4-1.7
				c-5.4-0.9-10.6-0.4-15.7,2.2c-7.7,4.1-14.3,9.5-20.2,15.7c-3.7,3.8-4.5,8.9-5.8,13.7c-1.6,6.3-2.6,13-5.3,18.7
				c-3.4,7.3-6.7,15.3-14.7,19.1c-3,1.4-6.5,2-9.8,2.9c-2.7,0.8-5.6,1.1-8.2,2.2c-8.9,3.6-17.6,7.8-26.6,11.1
				c-7.6,2.8-14.5,18.1-13.6,25.3c1,8.1,1.3,16.4,1.2,24.6c0,3-1.7,6.1-3,8.9c-2.2,4.9-3.5,9.3-2.8,15.2c1,9.6,0.2,19.7-1.5,29.3
				c-2.2,12.2-6.2,24.1-9,36.2c-2.5,11.1-2.2,22.2,1.2,33.2c0.2,0.7,0.7,1.3,0.7,1.9c-0.7,7,3.5,12.7,4.7,19.1
				c1.1,5.9,0.4,12.2,0.1,18.4c-0.4,7.5-1.4,15-1.9,22.6c-0.5,8-5.2,12.8-13.3,13.2c-2.3,0.1-3-0.9-2.9-3.1
				c0.3-6.3,0.4-12.6,0.7-18.9c0.2-5-1.4-9.3-4.9-12.7c-5.6-5.3-9.6-11.3-12.1-18.8c-2.8-8.4-6.9-16.4-10-24.7
				c-2-5.3-3.9-10.8-4.6-16.4c-1-8.4-1.5-16.9,0.8-25.2c0.6-2.2,0.7-4.5,0.7-6.8c0-10.8,0.6-21.6-0.3-32.3c-0.7-8-2.4-16.1-5.2-23.6
				c-7-19.2-7.9-38.9-6.1-58.9c0.4-4.3,2.5-8.6,4.5-12.4c4-7.4,9-14.4,12.9-21.9c5.1-9.7,11.9-17.3,22.3-21.2
				c6.3-2.4,10.9-7.1,15.2-12c7.3-8.2,15-15.5,25.2-20.3c6.6-3.1,12-9,18.7-11.9c7.7-3.4,13.9-9.4,22.5-11.3
				c10.3-2.3,20.2-6.9,30.6-8.8c14.4-2.6,28.5-0.8,42.1,5.9c9.4,4.6,18.8,8.9,27.3,14.9c3.7,2.6,6.2,5.6,6.6,10.3
				c0.1,1.7,0.3,3.4,0.5,5.1c0.3,3.3,2.3,5.5,5.1,6.8c3.9,1.9,5.4,0.3,6.1-3.8c1.4-9.4-2.7-17-6.9-24.5c-4.3-7.8-9.2-15.3-14.1-22.7
				c-3.4-5.3-9.3-6-14.8-6.7c-11.8-1.4-23.7-2.2-35.5-3.6c-7.4-0.8-14.7-2.4-22-3.3c-13.3-1.7-26.2-0.9-38.6,4.8
				c-15.2,6.9-30.1,14.1-44.3,23.1c-13.1,8.3-26.6,16.1-41.4,21.3c-6.7,2.4-11.1,7.2-15.2,12.8c-3.5,4.8-7.9,9-11.9,13.4
				c-1.3,1.4-2.8,2.8-3.6,4.5c-3.6,7.7-6.9,15.7-10.5,23.4c-2.9,6.1-6.1,12-9.2,18c-6.3,12.2-8.5,25.2-7.7,38.9
				c0.3,5.5-0.1,11,0.3,16.4c0.2,3.2,1.1,6.5,2.4,9.4c2.1,5.2,4.8,10.1,7.2,15.1c3.4,7,6.6,14,10.2,20.9c3,5.8,6.1,11.7,5.4,18.5
				c-0.3,3.4-1.6,6.6-2.4,9.9c-0.6,2.2-1.4,4.4-1.9,6.6c-0.9,4.3-2.6,7.9-7,9.7C63.6,1029.4,62.4,1030.9,61.1,1032"/>
			<path id="Fill-3" class="st2" d="M-40.5,514.5c1-1.7,1.6-3.7,3-5c5.5-5.5,11.1-11,16.8-16.3c1.4-1.3,3.3-2,5.1-2.8
				c20.5-8.9,42.2-12.9,63.9-17c9.8-1.8,19.4-4.6,29.5-3.9c7.4,0.5,14.8,1.1,22.3,1.7c10.5,0.8,21,1.9,31.5,2.4
				c18.3,0.9,34.5,7.5,49.4,17.8c3.5,2.4,7.2,4.7,11.1,6.1c7.5,2.8,11.1,8.8,14.6,15.3c2,3.8,4.6,7.3,6.9,10.9
				c0.8,1.2,2.1,2.4,2.3,3.7c1.2,8.1,6.3,14.4,9.7,21.5c0.6,1.3,0.6,3,0.9,4.5c-1.5,0.1-3.2,0.8-4.5,0.3c-2.5-1-4.9-2.4-6.9-4.3
				c-11.8-11.1-25.4-19-41.1-23.2c-1.1-0.3-2.3-0.4-3.3-1c-10.3-5.8-21.6-5.3-32.8-5.4c-7.5-0.1-14.8-0.7-21.9-3.5
				c-3.3-1.3-7.1-1.8-10.7-2.3c-14.7-2.1-29.5-4-44.2-6.3c-4.4-0.7-8.6-2.4-12.9-3.6c-7.9-2.1-15.9-1.2-23.9-0.3
				c-11.6,1.3-23.1,0.9-34.6-0.1c-1.6-0.1-3.3-0.2-4.7,0.4c-7.5,3.2-14.8,6.5-22.2,9.9c-0.8,0.4-1.6,0.8-2.4,1.2
				C-39.8,515-40.2,514.8-40.5,514.5"/>
			<path id="Fill-5" class="st2" d="M552.6,470.2c-9.8-0.5-19.4-0.9-29-1.7c-4.6-0.4-8.3,0.7-11.4,4.1c-7,7.5-15.3,13.4-24.7,17.7
				c-15,6.8-22.4,19.6-27.6,34.2c-0.5,1.3-0.6,2.7-1.3,3.9c-0.7,1.1-1.8,2.5-2.8,2.5c-1.2,0-2.8-1-3.5-2.1c-2.8-4.3-2.3-9.2-1.9-14
				c0.7-8.1,4-15.5,8.1-22.4c3.3-5.3,5.7-10.8,6.7-17.1c1.5-9.4,7-16.2,15.9-19.6c13-4.8,25.9-9.9,39.3-13.3
				c11.1-2.9,22.8-3.5,34.2-5.4c4.9-0.8,9.7-3,14.8-1.9c1.7,0.4,3.9,0.8,4.9,2c6.7,8.5,15.6,14.4,24,21c3.1,2.4,6.1,4.8,9,7.4
				c2.5,2.3,2.2,3.7-0.8,5.1c-6.4,3-12.8,3.5-19.5,0.1c-2.7-1.4-6.1-2-9.2-1.9C569.4,468.9,560.9,469.6,552.6,470.2"/>
			<path id="Fill-7" class="st2" d="M502,999.9c1.9,0.3,3.5,0.2,4.7,0.9c6.3,3.4,12.4,7.2,18.7,10.6c3.7,2,6.6,4.5,8.4,8.2
				c3.1,6.2,7.1,11.7,12.8,15.8c12.2,8.7,16.8,21,17.1,35.6c0.3,17.6,1.1,35.2,1.3,52.8c0.1,4.1-1,8.3-2.1,12.4
				c-2.9,10.9-5.9,21.8-9.1,32.7c-0.7,2.4-2.4,4.5-4,6.5c-0.4,0.6-2.1,0.7-2.8,0.3c-0.6-0.3-0.8-1.7-0.8-2.7c0-3.4-0.2-6.9,0.2-10.3
				c0.4-3.9,1.4-7.8,1.9-11.8c0.8-6,2.3-12,2-17.9c-0.2-3.7-2.7-7.4-4.7-10.7c-1.6-2.6-3.8-4.9-5.9-7.1c-6.9-7-9.8-15.6-10.1-25.2
				c-0.4-9.6-0.7-19.2-0.7-28.8c0-7.9-1.4-15.4-4-22.8c-2-5.7-3.8-11.5-5.1-17.4c-1.3-5.7-4.5-9.3-9.7-11.5
				C506.2,1007.8,502.9,1005.6,502,999.9"/>
			<path id="Fill-9" class="st2" d="M45.4,763.1c-5,8.6-9.3,17-14.5,24.8c-5.4,8-11.6,15.4-17.8,22.8c-5,6-10.2,11.8-15.6,17.4
				c-3.5,3.7-4.4,8.4-5.1,12.9c-1.9,11.8-5.1,23.2-9.6,34.3c-3.4,8.4-4.8,17.1-3.3,26.5c1.7,11.1,0.6,22.5-1.8,33.5
				c-0.2,1.1-2.1,2.2-3.4,2.5c-2.2,0.5-4.6,0-5.3-2.6c-0.5-1.8-0.7-3.9-0.4-5.8c1.4-10.9-1-21.2-4.8-31.3
				c-3.6-9.5-6.1-19.3-6.3-29.5c-0.3-20.3,7-37.7,21.4-52c6.6-6.6,14-12.3,20.9-18.5c3.4-3,6.6-6.4,10.2-9.3
				c8.9-7.4,17.9-14.7,27.1-21.8C39.3,765.3,42.4,764.5,45.4,763.1"/>
			<path id="Fill-11" class="st1" d="M282,453.6c2.7,1.4,4.8,2.1,6.5,3.3c11.1,7.4,21.9,15.1,34,20.8c2.8,1.3,5.1,3.5,7.6,5.3
				c4.3,3.1,6.5,7.4,8.1,12.3c2.1,6.6,5.3,12.9,7.6,19.4c1.3,3.6,2.7,7.3,2.9,11.1c0.4,8.2,0.2,16.5,0.1,24.7c0,3.1-1.3,3.9-4,2.3
				c-1.2-0.7-2.3-1.6-3.1-2.6c-9.6-12.1-19.1-24.3-28.7-36.4c-5.8-7.2-8.3-15.8-10.2-24.5c-1.6-7.6-4.9-13.9-11.5-18.3
				c-4.6-3-6.9-7.9-8.7-12.9C282.3,457,282.3,455.7,282,453.6"/>
			<path id="Fill-13" class="st1" d="M730.7,591.9c-0.8-0.2-1.8-0.2-2.2-0.7c-5.9-6.5-13.7-8.8-21.9-9c-8.7-0.2-16.7-2.6-24.5-5.9
				c-6.3-2.7-12.8-2.8-19.2-1.7c-10.1,1.8-20.2,4.1-30.1,6.7c-3.9,1-7.4,3.4-11,5.3c-3,1.6-6,3.4-9,4.9c-2.2,1.1-3.6,0.8-3.7-2.3
				c-0.1-3.9,0.9-7.1,3.6-10c3-3.3,5.2-7.3,8.2-10.6c1.3-1.4,3.6-2.8,5.4-2.7c8.7,0.6,16.4-1.5,24.4-5.1c10.6-4.9,21.9-7.8,33.9-7.6
				c5.3,0.1,10.2,1.2,14.6,4.1c5.1,3.3,10,6.9,15,10.4c2.2,1.5,4.2,3.4,6.6,4.3c8.5,3.3,9.3,10.9,10.4,18.4
				C731,590.7,730.8,591.1,730.7,591.9"/>
		</g>
	</g>
</g>
</svg>
