<svg width="727" height="349" viewBox="0 0 727 349" fill="none" xmlns="http://www.w3.org/2000/svg">
<path d="M175.683 76.6405L174.361 5.61826H187.961V143.507H174.549L156.416 28.8516H154.149L156.794 72.4849L157.927 143.507H144.516V5.61826H157.927L176.061 120.274H178.327L175.683 76.6405ZM195.964 15.2516V5.61826H215.986V15.2516H195.964ZM212.586 30.1738H199.364V143.507H212.586V30.1738ZM255.983 46.2294C255.983 48.622 254.975 52.0849 252.96 56.6183C251.072 61.1516 247.231 69.0849 241.438 80.4183H255.794C258.312 67.196 259.572 55.7368 259.572 46.0405C259.572 34.2035 254.723 28.2849 245.027 28.2849C239.36 28.2849 234.701 30.3627 231.049 34.5183C227.523 38.6738 225.76 45.159 225.76 53.9738V123.296C225.76 131.229 227.02 136.896 229.538 140.296C232.057 143.696 235.96 145.396 241.249 145.396C246.79 145.396 250.946 142.5 253.716 136.707C256.612 130.789 257.935 123.17 257.683 113.852L257.116 90.996H254.472L253.905 113.285C253.527 126.129 251.323 132.552 247.294 132.552C244.649 132.552 242.572 131.481 241.06 129.34C239.675 127.2 238.983 123.044 238.983 116.874V52.0849C238.983 48.3072 239.423 45.5368 240.305 43.7738C241.312 42.0109 243.138 41.1294 245.783 41.1294C249.435 41.1294 252.016 41.5701 253.527 42.4516C255.164 43.2072 255.983 44.4664 255.983 46.2294ZM306.48 77.2072L315.168 143.507H300.813L297.035 99.8738C296.531 93.3257 295.398 88.9183 293.635 86.6516C291.998 84.3849 289.417 83.4405 285.891 83.8183C285.513 86.9664 285.324 90.2405 285.324 93.6405V143.507H272.102V5.61826H285.324V20.9183L280.791 76.6405L282.68 77.0183L296.468 30.1738H313.468V41.8849L309.313 43.0183C305.283 44.1516 301.946 46.3553 299.302 49.6294C296.783 52.7775 294.013 58.1294 290.991 65.6849C288.85 70.8479 287.465 75.1923 286.835 78.7183L287.78 79.6627L306.48 77.2072ZM367.324 5.61826C375.761 5.61826 382.12 7.50715 386.402 11.2849C390.809 15.0627 393.013 21.1072 393.013 29.4183V118.007C393.013 126.696 390.368 133.118 385.079 137.274C379.916 141.429 373.179 143.507 364.868 143.507H364.491H350.324V5.61826H367.324ZM378.846 34.1405C378.846 28.096 377.902 24.0035 376.013 21.8627C374.124 19.596 370.787 18.4627 366.002 18.4627H364.491V130.663H367.324C371.731 130.663 374.753 129.781 376.391 128.018C378.028 126.255 378.846 123.548 378.846 119.896V34.1405ZM445.457 143.507V30.1738H432.234V101.952C432.234 110.766 431.353 118.07 429.59 123.863C427.827 129.655 425.623 132.552 422.979 132.552C421.216 132.552 420.02 131.796 419.39 130.285C418.76 128.774 418.446 126.255 418.446 122.729V30.1738H405.223V130.096C405.223 134.755 406.357 138.47 408.623 141.24C410.89 144.011 413.786 145.396 417.312 145.396C421.468 145.396 424.994 143.129 427.89 138.596C430.786 134.063 433.116 125.311 434.879 112.34L436.768 112.718L432.234 141.429V143.507H445.457ZM500.803 43.5849C500.803 38.9257 499.669 35.2109 497.403 32.4405C495.136 29.6701 492.24 28.2849 488.714 28.2849C484.558 28.2849 481.032 30.5516 478.136 35.0849C475.24 39.6183 472.91 48.3701 471.147 61.3405L469.258 60.9627L473.603 32.2516V5.61826H460.569V112.529L456.792 143.507H460.192L461.325 134.629L463.025 134.252C465.669 137.652 468.754 140.359 472.28 142.374C475.806 144.389 479.458 145.396 483.236 145.396C489.28 145.396 493.688 142.878 496.458 137.84C499.354 132.678 500.803 124.492 500.803 113.285V43.5849ZM487.203 114.418C487.203 122.1 486.762 127.2 485.88 129.718C485.125 132.111 483.803 133.307 481.914 133.307C479.017 133.307 476.31 132.048 473.792 129.529V71.3516C473.792 65.8109 474.169 60.7109 474.925 56.0516C475.806 51.3923 476.877 47.7405 478.136 45.096C479.521 42.4516 480.906 41.1294 482.292 41.1294C485.566 41.1294 487.203 44.4034 487.203 50.9516V114.418ZM510.564 15.2516V5.61826H530.586V15.2516H510.564ZM527.186 30.1738H513.964V143.507H527.186V30.1738ZM540.36 30.1738V143.507H553.582V71.7294C553.582 62.9146 554.464 55.6109 556.227 49.8183C557.99 44.0257 560.193 41.1294 562.838 41.1294C564.601 41.1294 565.797 41.8849 566.427 43.396C567.056 44.9072 567.371 47.4257 567.371 50.9516V143.507H580.593V43.5849C580.593 38.9257 579.46 35.2109 577.193 32.4405C574.927 29.6701 572.031 28.2849 568.505 28.2849C564.349 28.2849 560.823 30.5516 557.927 35.0849C555.031 39.6183 552.701 48.3701 550.938 61.3405L549.049 60.9627L553.582 32.2516V30.1738H540.36Z" fill="#FBF8F1"/>
<path d="M125.962 336.507H110.095L105.184 297.785H91.0171L88.5615 336.507H71.5615L92.3393 217.696L84.2171 198.618H102.917L125.962 336.507ZM95.5504 228.84L91.3949 294.007H104.617L101.217 266.618L97.6282 228.84H95.5504ZM145.848 198.618H132.626V336.507H145.848V198.618ZM169.6 338.396C172.244 338.396 174.448 337.578 176.211 335.94C177.974 334.303 179.548 331.155 180.933 326.496C182.319 321.711 183.452 314.785 184.333 305.718L186.222 306.096C185.719 313.4 185.467 318.059 185.467 320.074C185.467 327.126 186.222 331.974 187.733 334.618C189.244 337.137 191.7 338.396 195.1 338.396C199.256 338.396 202.089 336.57 203.6 332.918C205.111 329.266 205.804 324.103 205.678 317.429L205.111 285.129H202.467L201.9 318.185C201.774 321.081 201.459 323.033 200.956 324.04C200.452 325.048 199.696 325.552 198.689 325.552C197.43 325.552 196.422 324.859 195.667 323.474C195.037 321.963 194.722 318.878 194.722 314.218V236.774C194.722 231.863 193.337 228.085 190.567 225.44C187.796 222.67 183.704 221.285 178.289 221.285C174.511 221.285 170.985 222.607 167.711 225.252C164.437 227.77 161.856 231.044 159.967 235.074C158.078 238.978 157.133 242.944 157.133 246.974C157.133 258.181 158.77 267.689 162.044 275.496H180.178C172.748 268.066 167.774 262.148 165.256 257.74C162.737 253.333 161.478 249.052 161.478 244.896C161.478 241.37 162.359 238.726 164.122 236.963C165.885 235.074 169.096 234.129 173.756 234.129C176.904 234.129 178.982 234.633 179.989 235.64C180.996 236.648 181.5 238.663 181.5 241.685V276.629L178.1 279.84C172.937 284.626 169.096 288.403 166.578 291.174C164.059 293.944 162.107 296.966 160.722 300.24C159.337 303.515 158.644 307.418 158.644 311.952V324.985C158.644 333.926 162.296 338.396 169.6 338.396ZM175.078 324.607C172.937 324.607 171.867 323.096 171.867 320.074V301.185C171.867 296.903 172.496 293.378 173.756 290.607C175.015 287.711 177.596 284.374 181.5 280.596V295.707C181.5 304.522 180.933 311.574 179.8 316.863C178.667 322.026 177.093 324.607 175.078 324.607ZM211.736 208.252V198.618H231.758V208.252H211.736ZM228.358 223.174H215.136V336.507H228.358V223.174ZM241.532 223.174V336.507H254.754V264.729C254.754 255.915 255.636 248.611 257.399 242.818C259.162 237.026 261.365 234.129 264.01 234.129C265.773 234.129 266.969 234.885 267.599 236.396C268.228 237.907 268.543 240.426 268.543 243.952V336.507H281.765V236.585C281.765 231.926 280.632 228.211 278.365 225.44C276.099 222.67 273.202 221.285 269.676 221.285C265.521 221.285 261.995 223.552 259.099 228.085C256.202 232.618 253.873 241.37 252.11 254.34L250.221 253.963L254.754 225.252V223.174H241.532ZM305.567 338.396C308.211 338.396 310.415 337.578 312.178 335.94C313.941 334.303 315.515 331.155 316.9 326.496C318.285 321.711 319.419 314.785 320.3 305.718L322.189 306.096C321.685 313.4 321.433 318.059 321.433 320.074C321.433 327.126 322.189 331.974 323.7 334.618C325.211 337.137 327.667 338.396 331.067 338.396C335.222 338.396 338.056 336.57 339.567 332.918C341.078 329.266 341.771 324.103 341.645 317.429L341.078 285.129H338.433L337.867 318.185C337.741 321.081 337.426 323.033 336.922 324.04C336.419 325.048 335.663 325.552 334.656 325.552C333.396 325.552 332.389 324.859 331.633 323.474C331.004 321.963 330.689 318.878 330.689 314.218V236.774C330.689 231.863 329.304 228.085 326.533 225.44C323.763 222.67 319.671 221.285 314.256 221.285C310.478 221.285 306.952 222.607 303.678 225.252C300.404 227.77 297.822 231.044 295.933 235.074C294.045 238.978 293.1 242.944 293.1 246.974C293.1 258.181 294.737 267.689 298.011 275.496H316.145C308.715 268.066 303.741 262.148 301.222 257.74C298.704 253.333 297.445 249.052 297.445 244.896C297.445 241.37 298.326 238.726 300.089 236.963C301.852 235.074 305.063 234.129 309.722 234.129C312.871 234.129 314.948 234.633 315.956 235.64C316.963 236.648 317.467 238.663 317.467 241.685V276.629L314.067 279.84C308.904 284.626 305.063 288.403 302.545 291.174C300.026 293.944 298.074 296.966 296.689 300.24C295.304 303.515 294.611 307.418 294.611 311.952V324.985C294.611 333.926 298.263 338.396 305.567 338.396ZM311.045 324.607C308.904 324.607 307.833 323.096 307.833 320.074V301.185C307.833 296.903 308.463 293.378 309.722 290.607C310.982 287.711 313.563 284.374 317.467 280.596V295.707C317.467 304.522 316.9 311.574 315.767 316.863C314.633 322.026 313.059 324.607 311.045 324.607ZM407.561 198.618H424.561L404.916 298.352V336.507H390.75V298.163L372.05 198.618H387.916L395.472 250.94L399.061 284.374H401.139L407.561 198.618ZM444.344 198.618H431.122V336.507H444.344V198.618ZM454.118 208.252V198.618H474.141V208.252H454.118ZM470.741 223.174H457.518V336.507H470.741V223.174ZM516.593 232.807V223.174H499.026L498.081 221.663L502.048 197.296L499.97 196.729C497.452 200.507 493.107 203.089 486.937 204.474V223.174H478.248V232.807H486.937V316.296C486.937 324.229 488.133 329.896 490.526 333.296C492.919 336.696 496.57 338.396 501.481 338.396C506.644 338.396 510.548 335.689 513.193 330.274C515.963 324.733 517.222 317.555 516.97 308.74L516.404 283.996H513.759L513.193 308.174C512.941 314.596 512.374 319.129 511.493 321.774C510.611 324.292 509.037 325.552 506.77 325.552C504.756 325.552 503.119 324.481 501.859 322.34C500.726 320.2 500.159 316.044 500.159 309.874V232.807H516.593ZM537.989 338.396C540.633 338.396 542.837 337.578 544.6 335.94C546.363 334.303 547.937 331.155 549.322 326.496C550.707 321.711 551.841 314.785 552.722 305.718L554.611 306.096C554.107 313.4 553.855 318.059 553.855 320.074C553.855 327.126 554.611 331.974 556.122 334.618C557.633 337.137 560.089 338.396 563.489 338.396C567.644 338.396 570.478 336.57 571.989 332.918C573.5 329.266 574.192 324.103 574.066 317.429L573.5 285.129H570.855L570.289 318.185C570.163 321.081 569.848 323.033 569.344 324.04C568.841 325.048 568.085 325.552 567.078 325.552C565.818 325.552 564.811 324.859 564.055 323.474C563.426 321.963 563.111 318.878 563.111 314.218V236.774C563.111 231.863 561.726 228.085 558.955 225.44C556.185 222.67 552.092 221.285 546.678 221.285C542.9 221.285 539.374 222.607 536.1 225.252C532.826 227.77 530.244 231.044 528.355 235.074C526.466 238.978 525.522 242.944 525.522 246.974C525.522 258.181 527.159 267.689 530.433 275.496H548.566C541.137 268.066 536.163 262.148 533.644 257.74C531.126 253.333 529.866 249.052 529.866 244.896C529.866 241.37 530.748 238.726 532.511 236.963C534.274 235.074 537.485 234.129 542.144 234.129C545.292 234.129 547.37 234.633 548.378 235.64C549.385 236.648 549.889 238.663 549.889 241.685V276.629L546.489 279.84C541.326 284.626 537.485 288.403 534.966 291.174C532.448 293.944 530.496 296.966 529.111 300.24C527.726 303.515 527.033 307.418 527.033 311.952V324.985C527.033 333.926 530.685 338.396 537.989 338.396ZM543.466 324.607C541.326 324.607 540.255 323.096 540.255 320.074V301.185C540.255 296.903 540.885 293.378 542.144 290.607C543.404 287.711 545.985 284.374 549.889 280.596V295.707C549.889 304.522 549.322 311.574 548.189 316.863C547.055 322.026 545.481 324.607 543.466 324.607ZM596.746 198.618H583.524V336.507H596.746V198.618ZM628.243 338.396C634.287 338.396 639.198 336.318 642.976 332.163C646.88 328.007 648.832 321.585 648.832 312.896V243.385C648.832 235.452 647.321 229.785 644.298 226.385C641.276 222.985 636.68 221.285 630.51 221.285C624.465 221.285 619.491 223.363 615.587 227.518C611.81 231.674 609.921 238.096 609.921 246.785V316.296C609.921 324.229 611.432 329.896 614.454 333.296C617.476 336.696 622.073 338.396 628.243 338.396ZM628.243 234.129C630.51 234.129 632.273 235.2 633.532 237.34C634.917 239.481 635.61 243.637 635.61 249.807V314.785C635.61 318.437 635.232 321.144 634.476 322.907C633.847 324.67 632.524 325.552 630.51 325.552C628.117 325.552 626.291 324.481 625.032 322.34C623.773 320.2 623.143 316.044 623.143 309.874V244.896C623.143 241.244 623.458 238.537 624.087 236.774C624.843 235.011 626.228 234.129 628.243 234.129Z" fill="#FBF8F1"/>
<path opacity="0.28" d="M482.202 105.708C482.202 111.967 487.168 114.932 492.135 114.932C493.79 114.932 495.114 114.603 496.108 113.615C496.439 113.285 497.763 112.626 499.087 112.626C500.081 112.626 501.074 113.285 502.067 114.932C502.398 116.58 503.061 119.215 503.061 122.18C503.061 147.217 481.871 163.031 437.174 163.031H432.207C432.207 157.43 429.559 144.582 416.315 144.582C409.362 144.582 403.071 146.559 398.767 149.523C396.45 151.171 394.794 152.488 393.801 153.477L391.814 154.795C391.483 154.795 390.49 154.465 389.497 154.136L384.861 153.147C381.219 152.159 375.922 151.83 369.3 151.83C357.381 151.83 342.151 161.383 342.151 169.619C342.151 173.902 346.455 177.526 350.759 177.526C361.023 177.526 369.962 174.231 377.577 168.631C381.219 165.666 383.868 163.689 385.855 162.042L388.503 160.066C392.145 160.066 396.781 161.054 402.078 163.36C407.044 165.666 413.997 166.654 422.937 166.654C422.937 181.15 414.328 196.633 397.443 208.493C380.557 220.682 355.063 228.918 323.279 228.918C304.738 228.918 292.156 226.283 286.528 220.682C280.237 215.082 277.257 209.152 277.257 202.893C277.257 198.939 277.588 195.974 277.919 193.668C278.25 192.68 278.25 192.021 278.581 191.362V190.703C288.183 189.056 299.109 184.773 307.386 179.502C315.332 174.561 321.292 168.631 321.292 163.36C321.292 159.077 317.319 156.442 313.346 156.442C298.447 156.442 286.196 164.348 278.25 174.561C270.304 184.773 266 197.622 266 207.175C266 223.977 284.21 235.507 317.319 235.507C339.833 235.507 369.3 228.589 391.814 216.4C414.328 204.54 431.876 187.738 431.876 166.984H437.836C456.377 166.984 475.249 162.701 489.155 154.465C503.061 146.229 512 133.381 512 116.58C512 104.39 502.729 94.5071 494.452 94.5071C487.83 94.5071 482.202 99.4487 482.202 105.708ZM399.429 152.818C402.409 150.512 406.051 149.523 409.693 149.523C417.639 149.523 423.268 158.418 423.268 162.372C416.977 162.372 411.017 161.383 405.72 159.077C402.74 158.089 400.423 157.43 398.767 156.771C397.112 156.442 395.787 156.112 394.794 156.112L396.118 155.124C396.781 154.795 397.774 153.806 399.429 152.818ZM350.759 165.995C350.759 163.031 352.746 161.054 355.725 159.407C358.705 158.089 363.672 157.43 369.962 157.43C374.929 157.43 378.902 157.759 381.55 158.089C382.544 158.418 383.537 158.418 384.199 158.748C384.861 159.077 385.192 159.077 385.192 159.077C385.192 159.077 384.53 159.407 383.206 160.395L377.246 165.337C371.949 169.619 365.327 171.925 357.381 171.925C353.739 171.925 350.759 169.619 350.759 165.995ZM304.738 161.713C309.704 161.383 313.346 163.36 311.028 168.96C308.711 174.561 304.075 178.185 295.136 182.467C290.832 184.773 285.203 186.421 279.575 187.409L280.568 185.432C280.899 184.115 281.892 182.138 282.886 179.173C284.541 173.902 288.514 169.29 293.812 166.325C298.116 163.36 302.089 162.042 304.738 161.713Z" fill="#FBF8F1"/>
</svg>
