<?xml version="1.0" encoding="UTF-8"?>
<svg width="33px" height="33px" viewBox="0 0 33 33" version="1.1" xmlns="http://www.w3.org/2000/svg" xmlns:xlink="http://www.w3.org/1999/xlink">
    <title>✺</title>
    <g id="Page-1" stroke="none" stroke-width="1" fill="none" fill-rule="evenodd">
        <g id="Artboard-Copy-13" transform="translate(-189.000000, -96.000000)" fill="#000000" fill-rule="nonzero">
            <g id="Group-3" transform="translate(33.000000, 33.000000)">
                <polygon id="✺" points="173.369642 96 173.091356 82.5306122 177.98454 95.0942998 179.58468 94.3743842 174.227688 82.1125968 183.527056 91.773399 184.779339 90.5193526 175.085734 81.2068966 187.376669 86.6410978 188.049192 85.0154821 175.549543 80.1154117 189 80.3476425 189 78.5826882 175.549543 78.8845883 188.049192 73.9845179 187.376669 72.3589022 175.085734 77.7931034 184.779339 68.4574243 183.527056 67.226601 174.227688 76.8874032 179.58468 64.6023927 177.98454 63.9057002 173.091356 76.4461647 173.369642 63 171.607168 63 171.908644 76.4461647 167.01546 63.9057002 165.392129 64.6023927 170.772312 76.8874032 161.449754 67.226601 160.220661 68.4574243 169.914266 77.7931034 157.600141 72.3589022 156.950808 73.9845179 169.427266 78.8845883 156 78.5826882 156 80.3940887 169.427266 80.1154117 156.950808 85.0154821 157.600141 86.6410978 169.914266 81.2068966 160.220661 90.5193526 161.449754 91.773399 170.772312 82.1125968 165.392129 94.3743842 167.01546 95.0942998 171.908644 82.5306122 171.607168 96"></polygon>
            </g>
        </g>
    </g>
</svg>