<?xml version="1.0" encoding="UTF-8"?>
<svg width="33px" height="33px" viewBox="0 0 33 33" version="1.1" xmlns="http://www.w3.org/2000/svg" xmlns:xlink="http://www.w3.org/1999/xlink">
    <title>✺</title>
    <g id="Page-1" stroke="none" stroke-width="1" fill="none" fill-rule="evenodd">
        <g id="Artboard-Copy-6" transform="translate(-189.000000, -96.000000)" fill="#FFFFFF" fill-rule="nonzero">
            <polygon id="✺" points="206.369642 129 206.091356 115.530612 210.98454 128.0943 212.58468 127.374384 207.227688 115.112597 216.527056 124.773399 217.779339 123.519353 208.085734 114.206897 220.376669 119.641098 221.049192 118.015482 208.549543 113.115412 222 113.347643 222 111.582688 208.549543 111.884588 221.049192 106.984518 220.376669 105.358902 208.085734 110.793103 217.779339 101.457424 216.527056 100.226601 207.227688 109.887403 212.58468 97.6023927 210.98454 96.9057002 206.091356 109.446165 206.369642 96 204.607168 96 204.908644 109.446165 200.01546 96.9057002 198.392129 97.6023927 203.772312 109.887403 194.449754 100.226601 193.220661 101.457424 202.914266 110.793103 190.600141 105.358902 189.950808 106.984518 202.427266 111.884588 189 111.582688 189 113.394089 202.427266 113.115412 189.950808 118.015482 190.600141 119.641098 202.914266 114.206897 193.220661 123.519353 194.449754 124.773399 203.772312 115.112597 198.392129 127.374384 200.01546 128.0943 204.908644 115.530612 204.607168 129"></polygon>
        </g>
    </g>
</svg>