<?xml version="1.0" encoding="UTF-8"?>
<svg width="36px" height="18px" viewBox="0 0 36 18" version="1.1" xmlns="http://www.w3.org/2000/svg" xmlns:xlink="http://www.w3.org/1999/xlink">
    <title>☞</title>
    <g id="Page-1" stroke="none" stroke-width="1" fill="none" fill-rule="evenodd">
        <g id="Artboard-Copy-26" transform="translate(-667.000000, -881.000000)" fill="#030303" fill-rule="nonzero">
            <g id="Group-6" transform="translate(168.000000, 485.000000)">
                <g id="Group-5" transform="translate(449.000000, 396.000000)">
                    <path d="M67.974,17.974 C69.076,17.974 70.102,17.138 70.102,16.226 C70.102,16.074 70.102,15.96 70.064,15.732 C70.444,15.884 70.672,15.922 70.862,15.922 C72.116,15.922 73.218,14.782 73.218,13.414 C73.218,13.11 73.18,12.882 72.99,12.388 C74.32,12.312 75.232,11.362 75.232,10.07 C75.232,9.386 75.118,9.044 74.662,8.322 L78.918,8.322 C82.148,8.322 83.402,8.17 84.276,7.6 C84.846,7.22 85.112,6.764 85.112,6.156 C85.112,5.434 84.656,4.75 84.01,4.446 C83.25,4.142 82.11,3.952 79.982,3.8 C76.7357143,3.61180952 75.499034,3.54011791 74.4239266,3.4136441 L74.1778519,3.38340741 C73.6064444,3.31022222 73.0406667,3.21733333 72.192,3.078 C71.014,1.672 70.178,1.064 69.038,0.798 C68.202,0.608 67.594,0.494 67.214,0.38 C65.732,0.038 65.58,1.15463195e-13 64.744,1.15463195e-13 C63.718,1.15463195e-13 62.616,0.228 61.704,0.57 C60.526,1.064 58.436,2.318 57.524,3.078 C56.84,3.686 56.65,3.8 56.08,3.838 C54.94,2.698 54.598,2.508 53.61,2.508 L53.5210914,2.50870914 C53.4024211,2.51136842 53.194,2.524 52.204,2.584 C51.52,2.622 51.33,2.698 51.026,2.964 C50.342,3.61 50,5.13 50,7.752 C50,10.678 50.456,13.11 51.216,14.478 C51.482,14.934 51.938,15.086 53.002,15.086 C53.762,15.086 54.864,14.972 55.168,14.858 C55.472,14.744 55.776,14.516 56.194,14.098 C57.068,14.44 57.372,14.592 58.474,15.276 C61.628,17.176 62.768,17.632 64.326,17.632 L64.6019068,17.6315432 C65.0012066,17.6294876 65.3658182,17.6181818 66.112,17.556 C67.024,17.86 67.594,17.974 67.974,17.974 Z M64.554,16.682 C63.186,16.568 62.008,16.15 60.45,15.2 C59.12,14.44 58.322,13.984 58.056,13.832 C56.84,13.262 56.84,13.262 56.194,12.882 C55.7,12.198 55.548,11.818 55.396,10.83 C55.282,10.26 55.206,9.424 55.206,9.006 C55.206,8.74 55.282,6.916 55.282,6.612 C55.358,5.738 55.396,5.624 55.7,4.902 C55.852,4.94 55.966,4.978 56.042,4.978 C56.612,4.978 57.144,4.712 58.018,4.028 C59.082,3.23 60.944,2.09 61.97,1.634 C62.92,1.216 63.794,1.026 64.706,1.026 C65.276,1.026 66.454,1.254 67.784,1.596 C69.836,2.166 70.368,2.508 71.47,4.028 C72.344,5.206 73.142,6.688 73.142,7.106 C73.142,7.562 72.686,7.866 72.002,7.866 C70.976,7.866 70.102,7.334 69.38,6.27 C69.076,5.852 69.076,5.852 68.392,5.624 C67.9258667,5.4416 67.7083378,5.35648 67.5434121,5.29946311 L67.4265185,5.26088889 C67.3322222,5.23133333 67.2393333,5.206 67.1,5.168 C66.378,6.08 65.542,6.802 64.288,7.6 C63.3,8.246 62.274,8.512 60.716,8.512 L60.526,8.512 L60.526,8.512 C60.0193333,8.46133333 59.7378519,8.43318519 59.5781372,8.41754733 L59.4795665,8.40800823 C59.4137572,8.40175309 59.3854136,8.39940741 59.369287,8.39852778 L59.348,8.398 L59.348,8.398 C59.044,8.398 58.854,8.55 58.854,8.816 C58.854,9.234 59.5,9.538 60.412,9.538 C61.096,9.538 62.692,9.31 63.262,9.158 C63.3264348,9.13817391 63.3856975,9.11899433 63.4437516,9.09869039 L63.5594225,9.05605868 C63.9086465,8.92051796 64.3094783,8.702 65.618,8.018 C65.694,8.36 65.732,8.474 65.884,8.74 C64.668,8.892 63.946,9.576 63.946,10.602 C63.946,10.754 63.984,10.944 64.06,11.248 C62.92,11.248 62.16,12.084 62.16,13.3 C62.16,14.326 62.92,15.39 64.554,16.682 Z M52.888,13.946 C52.204,13.946 52.052,13.832 51.786,13.186 C51.216,11.78 50.988,10.184 50.988,7.98 C50.988,6.232 51.14,4.788 51.368,4.18 C51.558,3.724 51.824,3.61 52.622,3.61 L53.382,3.61 L53.382,3.61 C53.61,3.572 53.724,3.572 53.876,3.572 C54.332,3.572 54.75,3.838 54.75,4.066 L54.142,8.322 C54.142,9.994 54.37,11.628 54.788,12.54 C55.054,13.186 55.13,13.376 55.13,13.49 C55.13,13.87 54.674,13.946 52.888,13.946 Z M76.5324156,7.25739527 L74.206,7.258 C74.168,6.384 73.94,5.738 73.294,4.788 C73.218,4.674 73.104,4.484 72.99,4.256 C73.123,4.27816667 73.3497465,4.30356597 73.6702396,4.33408362 L73.9679062,4.36153906 C74.7694688,4.43353125 76.0015,4.5315 77.664,4.674 C81.046,4.94 82.718,5.092 82.756,5.092 C83.592,5.282 84.048,5.662 84.048,6.194 C84.048,6.498 83.63,6.878 83.212,6.992 C82.5991282,7.17225641 80.8917765,7.24990533 76.5324156,7.25739527 Z M72.8,11.438 C72.458,11.438 71.09,11.02 70.368,10.678 C70.216,10.64 68.506,9.69 68.164,9.5 C67.1,8.892 66.606,8.284 66.606,7.6 C66.606,7.106 67.252,6.46 67.822,6.46 C68.126,6.46 68.278,6.574 68.62,7.068 C69.038,7.676 69.76,8.322 70.254,8.512 C70.862,8.74 71.546,8.892 72.116,8.892 C72.572,8.892 72.838,8.816 73.446,8.55 C73.522,8.512 73.978,9.158 74.054,9.462 C74.13,9.614 74.206,9.918 74.206,10.07 C74.206,10.792 73.522,11.438 72.8,11.438 Z M70.862,14.782 C70.254,14.782 69.342,14.402 67.784,13.49 C65.732,12.274 64.934,11.552 64.934,10.83 C64.934,10.26 65.466,9.728 66.074,9.728 C66.492,9.728 66.606,9.766 67.67,10.412 C68.164,10.716 70.14,11.704 71.166,12.16 C71.66,12.388 72.116,13.072 72.116,13.528 C72.116,14.174 71.508,14.782 70.862,14.782 Z M67.822,16.986 C66.948,16.986 65.96,16.492 64.744,15.466 C63.794,14.63 63.224,13.794 63.224,13.186 C63.224,12.73 63.68,12.35 64.174,12.35 C64.402,12.35 64.554,12.426 64.858,12.73 C65.2,13.11 65.808,13.528 66.606,14.022 C67.8695,14.7740833 68.1327292,14.9307674 68.3195488,15.0765357 L68.377082,15.1228867 C68.4056563,15.1465625 68.43475,15.1715 68.468,15.2 C68.886,15.58 69.076,15.846 69.076,16.112 C69.076,16.606 68.544,16.986 67.822,16.986 Z" id="☞"></path>
                </g>
            </g>
        </g>
    </g>
</svg>