<?xml version="1.0" encoding="UTF-8"?>
<svg width="36px" height="18px" viewBox="0 0 36 18" version="1.1" xmlns="http://www.w3.org/2000/svg" xmlns:xlink="http://www.w3.org/1999/xlink">
    <title>☞</title>
    <g id="Page-1" stroke="none" stroke-width="1" fill="none" fill-rule="evenodd">
        <g id="Artboard-Copy-26" transform="translate(-617.000000, -881.000000)" fill="#030303" fill-rule="nonzero">
            <g id="Group-6" transform="translate(168.000000, 485.000000)">
                <g id="Group-5" transform="translate(449.000000, 396.000000)">
                    <path d="M17.974,17.974 C19.076,17.974 20.102,17.138 20.102,16.226 C20.102,16.074 20.102,15.96 20.064,15.732 C20.444,15.884 20.672,15.922 20.862,15.922 C22.116,15.922 23.218,14.782 23.218,13.414 C23.218,13.11 23.18,12.882 22.99,12.388 C24.32,12.312 25.232,11.362 25.232,10.07 C25.232,9.386 25.118,9.044 24.662,8.322 L28.918,8.322 C32.148,8.322 33.402,8.17 34.276,7.6 C34.846,7.22 35.112,6.764 35.112,6.156 C35.112,5.434 34.656,4.75 34.01,4.446 C33.25,4.142 32.11,3.952 29.982,3.8 C26.7357143,3.61180952 25.499034,3.54011791 24.4239266,3.4136441 L24.1778519,3.38340741 C23.6064444,3.31022222 23.0406667,3.21733333 22.192,3.078 C21.014,1.672 20.178,1.064 19.038,0.798 C18.202,0.608 17.594,0.494 17.214,0.38 C15.732,0.038 15.58,1.15463195e-13 14.744,1.15463195e-13 C13.718,1.15463195e-13 12.616,0.228 11.704,0.57 C10.526,1.064 8.436,2.318 7.524,3.078 C6.84,3.686 6.65,3.8 6.08,3.838 C4.94,2.698 4.598,2.508 3.61,2.508 L3.52109141,2.50870914 C3.40242105,2.51136842 3.194,2.524 2.204,2.584 C1.52,2.622 1.33,2.698 1.026,2.964 C0.342,3.61 5.32907052e-14,5.13 5.32907052e-14,7.752 C5.32907052e-14,10.678 0.456,13.11 1.216,14.478 C1.482,14.934 1.938,15.086 3.002,15.086 C3.762,15.086 4.864,14.972 5.168,14.858 C5.472,14.744 5.776,14.516 6.194,14.098 C7.068,14.44 7.372,14.592 8.474,15.276 C11.628,17.176 12.768,17.632 14.326,17.632 L14.6019068,17.6315432 C15.0012066,17.6294876 15.3658182,17.6181818 16.112,17.556 C17.024,17.86 17.594,17.974 17.974,17.974 Z M14.554,16.682 C13.186,16.568 12.008,16.15 10.45,15.2 C9.12,14.44 8.322,13.984 8.056,13.832 C6.84,13.262 6.84,13.262 6.194,12.882 C5.7,12.198 5.548,11.818 5.396,10.83 C5.282,10.26 5.206,9.424 5.206,9.006 C5.206,8.74 5.282,6.916 5.282,6.612 C5.358,5.738 5.396,5.624 5.7,4.902 C5.852,4.94 5.966,4.978 6.042,4.978 C6.612,4.978 7.144,4.712 8.018,4.028 C9.082,3.23 10.944,2.09 11.97,1.634 C12.92,1.216 13.794,1.026 14.706,1.026 C15.276,1.026 16.454,1.254 17.784,1.596 C19.836,2.166 20.368,2.508 21.47,4.028 C22.344,5.206 23.142,6.688 23.142,7.106 C23.142,7.562 22.686,7.866 22.002,7.866 C20.976,7.866 20.102,7.334 19.38,6.27 C19.076,5.852 19.076,5.852 18.392,5.624 C17.9258667,5.4416 17.7083378,5.35648 17.5434121,5.29946311 L17.4265185,5.26088889 C17.3322222,5.23133333 17.2393333,5.206 17.1,5.168 C16.378,6.08 15.542,6.802 14.288,7.6 C13.3,8.246 12.274,8.512 10.716,8.512 L10.526,8.512 L10.526,8.512 C10.0193333,8.46133333 9.73785185,8.43318519 9.57813717,8.41754733 L9.47956653,8.40800823 C9.4137572,8.40175309 9.38541358,8.39940741 9.36928704,8.39852778 L9.348,8.398 L9.348,8.398 C9.044,8.398 8.854,8.55 8.854,8.816 C8.854,9.234 9.5,9.538 10.412,9.538 C11.096,9.538 12.692,9.31 13.262,9.158 C13.3264348,9.13817391 13.3856975,9.11899433 13.4437516,9.09869039 L13.5594225,9.05605868 C13.9086465,8.92051796 14.3094783,8.702 15.618,8.018 C15.694,8.36 15.732,8.474 15.884,8.74 C14.668,8.892 13.946,9.576 13.946,10.602 C13.946,10.754 13.984,10.944 14.06,11.248 C12.92,11.248 12.16,12.084 12.16,13.3 C12.16,14.326 12.92,15.39 14.554,16.682 Z M2.888,13.946 C2.204,13.946 2.052,13.832 1.786,13.186 C1.216,11.78 0.988,10.184 0.988,7.98 C0.988,6.232 1.14,4.788 1.368,4.18 C1.558,3.724 1.824,3.61 2.622,3.61 L3.382,3.61 L3.382,3.61 C3.61,3.572 3.724,3.572 3.876,3.572 C4.332,3.572 4.75,3.838 4.75,4.066 L4.142,8.322 C4.142,9.994 4.37,11.628 4.788,12.54 C5.054,13.186 5.13,13.376 5.13,13.49 C5.13,13.87 4.674,13.946 2.888,13.946 Z M26.5324156,7.25739527 L24.206,7.258 C24.168,6.384 23.94,5.738 23.294,4.788 C23.218,4.674 23.104,4.484 22.99,4.256 C23.123,4.27816667 23.3497465,4.30356597 23.6702396,4.33408362 L23.9679062,4.36153906 C24.7694688,4.43353125 26.0015,4.5315 27.664,4.674 C31.046,4.94 32.718,5.092 32.756,5.092 C33.592,5.282 34.048,5.662 34.048,6.194 C34.048,6.498 33.63,6.878 33.212,6.992 C32.5991282,7.17225641 30.8917765,7.24990533 26.5324156,7.25739527 Z M22.8,11.438 C22.458,11.438 21.09,11.02 20.368,10.678 C20.216,10.64 18.506,9.69 18.164,9.5 C17.1,8.892 16.606,8.284 16.606,7.6 C16.606,7.106 17.252,6.46 17.822,6.46 C18.126,6.46 18.278,6.574 18.62,7.068 C19.038,7.676 19.76,8.322 20.254,8.512 C20.862,8.74 21.546,8.892 22.116,8.892 C22.572,8.892 22.838,8.816 23.446,8.55 C23.522,8.512 23.978,9.158 24.054,9.462 C24.13,9.614 24.206,9.918 24.206,10.07 C24.206,10.792 23.522,11.438 22.8,11.438 Z M20.862,14.782 C20.254,14.782 19.342,14.402 17.784,13.49 C15.732,12.274 14.934,11.552 14.934,10.83 C14.934,10.26 15.466,9.728 16.074,9.728 C16.492,9.728 16.606,9.766 17.67,10.412 C18.164,10.716 20.14,11.704 21.166,12.16 C21.66,12.388 22.116,13.072 22.116,13.528 C22.116,14.174 21.508,14.782 20.862,14.782 Z M17.822,16.986 C16.948,16.986 15.96,16.492 14.744,15.466 C13.794,14.63 13.224,13.794 13.224,13.186 C13.224,12.73 13.68,12.35 14.174,12.35 C14.402,12.35 14.554,12.426 14.858,12.73 C15.2,13.11 15.808,13.528 16.606,14.022 C17.8695,14.7740833 18.1327292,14.9307674 18.3195488,15.0765357 L18.377082,15.1228867 C18.4056563,15.1465625 18.43475,15.1715 18.468,15.2 C18.886,15.58 19.076,15.846 19.076,16.112 C19.076,16.606 18.544,16.986 17.822,16.986 Z" id="☞" transform="translate(17.556000, 8.987000) scale(-1, 1) translate(-17.556000, -8.987000) "></path>
                </g>
            </g>
        </g>
    </g>
</svg>