<svg width="1269" height="106" viewBox="0 0 1269 106" fill="none" xmlns="http://www.w3.org/2000/svg">
<g clip-path="url(#clip0_744_45)">
<path fill-rule="evenodd" clip-rule="evenodd" d="M53.4739 0.994385L81.7372 51.8973L219.595 80.6667L240.396 43.9834L270.28 72.1756L356.519 28.9306L527.804 80.2232L623.827 52.5076L613.871 88.5297L733.899 80.7269L834.092 104.257L792.689 28.5944L950.498 80.6745L1010.99 35.7161L1099.5 98.0559L1165.59 54.2477L1117.34 36.8035L1117.68 35.863L1166.63 53.5596L1203.94 28.8291L1268.35 90.3769L1267.83 91.2086L1166.76 54.6711L1099.48 99.267L1011 36.9504L950.678 81.7869L794.783 30.3387L836.045 105.743L733.815 81.7345L613.589 89.5502L609.146 105.625L565.832 92.6548L465.758 99.1604L465.587 98.1811L526.029 80.7355L356.612 30.0025L270.103 73.3832L240.637 45.5856L220.105 81.7947L82.3787 53.0528L101.337 87.1961L26.6566 48.3216L1.43016 90.9928L0.569336 90.4839L25.7683 47.8592L4.47821 36.7767L4.81122 35.8438L29.7899 41.0565L53.4739 0.994385ZM29.2523 41.9659L8.1544 37.563L26.2779 46.9971L29.2523 41.9659ZM27.1662 47.4596L30.2864 42.1817L81.085 52.7828L98.8472 84.773L27.1662 47.4596ZM80.4435 51.6273L30.824 41.2723L53.4467 3.00541L80.4435 51.6273ZM527.799 81.2655L470.293 97.8634L563.082 91.8314L527.799 81.2655ZM568.696 92.4686L608.454 104.374L612.532 89.6189L568.696 92.4686ZM612.814 88.5984L565.946 91.6452L529.574 80.7532L622.387 53.964L612.814 88.5984ZM1167.8 53.983L1265.94 89.4623L1203.83 30.104L1167.8 53.983Z" fill="black"/>
</g>
<defs>
<clipPath id="clip0_744_45">
<rect width="1269" height="106" fill="white"/>
</clipPath>
</defs>
</svg>
