<?xml version="1.0" encoding="UTF-8"?>
<svg width="62px" height="84px" viewBox="0 0 62 84" version="1.1" xmlns="http://www.w3.org/2000/svg" xmlns:xlink="http://www.w3.org/1999/xlink">
    <title>P</title>
    <g id="Page-1" stroke="none" stroke-width="1" fill="none" fill-rule="evenodd">
        <g id="Desktop" transform="translate(-234.000000, -43.000000)" fill="#49001C" fill-rule="nonzero">
            <path d="M238.894523,126.757828 C239.925772,126.757828 240.957021,126.500016 241.98827,126.113297 C242.890613,125.726579 243.792956,125.339861 244.695298,124.824236 C245.082017,124.69533 245.597641,124.308612 245.98436,124.179705 C247.660139,123.148456 249.335919,122.117207 250.882793,120.957052 C252.429666,119.925803 253.847634,118.765648 255.265601,117.605493 L259.519503,114.125028 L263.386687,110.644562 C264.417936,109.742219 265.449185,108.839876 266.351528,107.937533 L269.831993,111.417999 C273.828083,115.414089 277.695267,118.37893 281.304639,120.441428 C284.785104,122.503926 288.007757,123.664081 290.199161,124.179705 C290.714786,124.179705 291.23041,124.308612 291.746035,124.437518 L292.648378,124.437518 L292.648378,124.437518 L292.777284,124.566424 L293.808533,124.566424 L295.613219,124.69533 L295.613219,120.957052 L293.035096,120.957052 L292.90619,120.828146 L292.90619,120.828146 L291.874941,120.828146 C291.746035,120.828146 291.746035,120.828146 291.617129,120.69924 L290.843692,120.69924 C289.167912,120.312522 286.203071,119.281273 282.980418,117.605493 C279.499953,115.671901 275.890581,112.835966 271.894491,109.226595 C271.249961,108.71097 270.734336,108.195346 270.218712,107.550815 C269.574181,107.035191 269.058557,106.519566 268.414026,105.875035 C271.378867,103.168007 274.085895,100.332072 276.664018,97.7539494 C278.59761,95.8203575 280.402296,93.8867656 281.949169,92.2109859 C283.624949,90.5352063 285.300729,88.9883328 286.460884,87.4414592 C289.167912,84.7344306 291.359316,82.2852142 292.777284,80.7383406 L293.808533,79.7070916 C294.034119,79.368713 294.259704,79.1290282 294.398933,78.9880371 L294.968688,78.4180303 L295.742125,77.1289691 L293.421815,75.3242833 L292.519096,76.3559081 L292.519096,76.3559081 L292.390565,76.4844384 L292.390565,76.4844384 L292.003847,77.0000629 C291.874941,77.1289691 291.617129,77.3867813 291.359316,77.7734997 C291.101504,78.1602181 290.843692,78.5469365 290.456974,78.9336548 C289.296818,80.4805284 287.23432,82.9297448 284.656198,85.8945857 C282.078075,88.9883328 278.855422,92.4687982 275.117144,96.4648881 C274.988238,96.7227004 274.730426,96.9805126 274.472614,97.2383249 L273.699177,98.0117617 C273.183553,98.5273862 272.667928,99.0430107 272.28121,99.6875413 L267.253871,104.71488 C264.804654,102.007852 262.355438,99.0430107 259.906221,95.5625452 C259.777315,95.4336391 259.648409,95.1758269 259.519503,94.9180146 C259.261691,94.6602024 259.132785,94.4023901 259.003879,94.273484 C261.710907,91.5664553 264.417936,88.4727083 266.867152,85.2500551 C268.28512,83.5742754 269.703087,81.6406835 270.734336,79.5781855 L271.636679,78.1602181 L272.023397,77.3867813 L272.023397,77.3867813 L272.796834,75.8399078 C272.92574,75.5820955 272.92574,75.3242833 273.054646,74.9375649 L273.441365,74.1641281 C273.570271,73.9063159 273.570271,73.6485036 273.699177,73.3906914 C274.343708,71.1992872 274.988238,69.0078831 275.117144,66.5586667 L275.117144,63.0782012 C275.009723,62.9707794 274.991819,62.9528758 274.988835,62.8752934 L274.988238,61.7891399 C274.880817,61.6817182 274.862913,61.6638145 274.859929,61.5862322 L274.859332,61.4024216 C274.859332,60.8867971 274.730426,60.2422664 274.60152,59.7266419 C274.214802,57.2774255 273.570271,55.2149275 272.667928,53.0235233 C271.636679,50.9610253 270.347618,49.0274334 268.671838,47.3516537 C267.124965,45.8047802 264.93356,44.3868128 262.742156,43.7422822 C262.355438,43.613376 262.097626,43.613376 261.839813,43.613376 C261.582001,43.613376 261.324189,43.613376 261.066377,43.4844699 C260.734904,43.3739789 260.498137,43.3581945 260.274901,43.3555638 L259.261691,43.3555638 C258.101536,43.3555638 256.941381,43.3555638 255.781225,43.7422822 C254.749976,44.1290005 253.589821,44.5157189 252.558572,45.1602496 C251.656229,45.6758741 250.753886,46.4493108 249.851544,47.3516537 C248.30467,48.8985272 247.144515,50.8321191 246.242172,52.8946172 C245.726548,53.9258662 245.339829,54.9571152 245.210923,56.1172704 C245.082017,56.3750826 245.082017,56.6328949 245.082017,56.8907071 C245.082017,57.1485194 245.082017,57.4063316 244.953111,57.6641439 C244.824205,58.1797684 244.695298,58.6953929 244.695298,59.2110174 L244.566392,60.1133603 L244.566392,61.2735154 L244.437486,61.4024216 L244.437486,61.4024216 L244.437486,64.1094502 L244.566392,64.882887 L244.566392,65.6563238 C244.695298,67.7188218 245.210923,69.7813198 245.726548,71.7149117 C246.113266,73.7774098 246.757797,75.5820955 247.402327,77.5156875 C248.820295,81.2539651 250.496074,84.7344306 252.171854,87.9570837 C253.332009,90.5352063 255.007789,92.9844227 256.554662,95.1758269 C255.136695,96.5937943 253.589821,98.0117617 251.914042,99.5586352 L247.660139,103.554725 C245.98436,105.101599 244.437486,106.519566 242.890613,108.06644 C241.343739,109.613313 239.925772,111.160187 238.507804,112.70706 C238.400383,112.814482 238.203443,113.011422 238.066182,113.223281 L237.99218,113.351591 C237.863274,113.609403 237.605461,113.867215 237.476555,113.996121 C236.832025,114.898464 236.187494,115.671901 235.67187,116.574244 C235.285151,117.089868 235.027339,117.605493 234.898433,117.992211 C234.382808,119.02346 233.99609,120.054709 233.99609,121.214865 C233.867184,122.246114 234.124996,123.406269 234.640621,124.437518 L234.898433,124.824236 L235.027339,124.824236 L235.027339,124.953142 L235.156245,125.082048 C235.285151,125.468767 235.414057,125.597673 235.800776,125.726579 C236.187494,126.113297 236.703119,126.37111 237.218743,126.500016 C237.863274,126.628922 238.378898,126.757828 238.894523,126.757828 Z M258.359348,93.3711411 C256.941381,91.308643 255.394507,88.9883328 254.234352,86.7969286 C252.558572,83.7031815 251.011699,80.3516222 249.593731,76.7422507 C248.949201,75.066471 248.30467,73.1328791 247.789046,71.1992872 C247.273421,69.2656953 246.886703,67.4610095 246.757797,65.3985115 L246.62889,64.7539809 L246.62889,62.820389 C246.62889,62.6914828 246.62889,62.5625767 246.499984,62.4336706 L246.499984,61.1446093 L246.499984,61.1446093 L246.62889,61.0157032 L246.62889,59.4688297 C246.732015,59.2625799 246.75264,59.0563301 246.756765,58.8500803 L246.757797,58.6953929 C246.757797,58.4375806 246.757797,58.1797684 246.886703,57.9219561 C247.015609,57.79305 247.015609,57.5352378 247.015609,57.2774255 C247.015609,57.0196132 247.015609,56.761801 247.144515,56.5039887 C247.273421,55.6016458 247.660139,54.5703968 248.046858,53.6680539 C248.691388,51.734462 249.851544,50.0586824 251.269511,48.640715 C251.914042,47.9961844 252.687478,47.2227476 253.589821,46.7071231 C254.492164,46.1914986 255.394507,45.6758741 256.29685,45.5469679 C257.328099,45.1602496 258.359348,45.0313434 259.390597,45.0313434 L260.035128,45.0313434 C260.241377,45.0313434 260.447627,45.0313434 260.653877,45.0973434 L260.808564,45.1602496 C261.066377,45.2891557 261.324189,45.2891557 261.582001,45.2891557 C261.839813,45.2891557 262.097626,45.2891557 262.355438,45.4180618 C264.28903,45.9336863 266.222622,47.0938415 267.640589,48.5118089 C269.187463,50.0586824 270.347618,51.734462 271.378867,53.7969601 C272.28121,55.730552 272.796834,57.9219561 273.312459,59.9844542 C273.312459,60.5000787 273.441365,61.0157032 273.570271,61.6602338 L273.570271,62.4336706 L273.696171,62.5595702 C273.699177,62.5625767 273.699177,62.5625767 273.699177,62.5625767 L273.699177,63.2071073 L273.828083,64.1094502 L273.828083,66.5586667 C273.699177,68.7500708 273.183553,70.941475 272.539022,73.003973 C272.152304,74.035222 271.765585,75.066471 271.249961,76.0977201 C271.121055,76.2266262 271.121055,76.2266262 271.121055,76.3555323 C271.121055,76.4844384 271.121055,76.6133446 270.992148,76.7422507 L269.831993,79.062561 C268.671838,80.9961529 267.511683,82.6719325 266.093716,84.6055244 L261.839813,89.6328634 C261.195283,90.277394 260.679658,90.7930185 260.164034,91.4375492 L258.359348,93.3711411 Z M238.636711,125.597673 L237.99218,125.597673 C237.734368,125.597673 237.476555,125.597673 237.347649,125.468767 C236.832025,125.339861 236.574212,125.210954 236.187494,124.824236 L236.058588,124.824236 L236.058588,124.824236 L235.67187,124.437518 L235.67187,124.308612 L235.542963,124.179705 L235.285151,123.792987 L235.027339,123.277363 L234.898433,122.890644 L234.898433,122.503926 C234.769527,122.37502 234.769527,122.37502 234.769527,122.246114 L234.769527,121.214865 C234.769527,120.183616 235.156245,119.281273 235.542963,118.37893 C236.445306,116.70315 237.734368,114.898464 239.152335,113.351591 C240.570302,111.804717 241.98827,110.257844 243.535143,108.839876 L247.015609,105.359411 L247.015609,105.359411 L248.175764,104.328162 C249.593731,102.910194 251.140605,101.621133 252.687478,100.203166 C254.234352,98.7851984 255.652319,97.4961371 257.070287,96.0781697 L257.457005,96.5937943 C257.585911,96.7227004 257.585911,96.9805126 257.714817,97.1094188 C260.164034,100.71879 262.742156,103.941443 265.320279,106.648472 C264.160124,107.808627 263.128875,108.839876 261.96872,109.871125 C260.808564,110.902374 259.648409,111.933623 258.488254,113.093779 C257.070287,114.253934 255.781225,115.542995 254.363258,116.70315 C251.656229,118.894554 248.562482,121.214865 245.339829,123.148456 C245.210923,123.277363 244.953111,123.277363 244.695298,123.406269 C244.179674,123.664081 243.921862,123.792987 243.406237,124.179705 C242.890613,124.566424 242.6328,124.69533 242.117176,124.824236 C241.859364,124.953142 241.601551,124.953142 241.472645,125.082048 C240.441396,125.468767 239.539053,125.597673 238.636711,125.597673 Z" id="P"></path>
        </g>
    </g>
</svg>