<?xml version="1.0" encoding="utf-8"?>
<!-- Generator: Adobe Illustrator 25.2.1, SVG Export Plug-In . SVG Version: 6.00 Build 0)  -->
<svg version="1.1" id="Layer_1" xmlns="http://www.w3.org/2000/svg" xmlns:xlink="http://www.w3.org/1999/xlink" x="0px" y="0px"
	 viewBox="0 0 1219.6 1030.1" style="enable-background:new 0 0 1219.6 1030.1;" xml:space="preserve">
<style type="text/css">
	.st0{opacity:7.653525e-02;}
	.st1{fill-rule:evenodd;clip-rule:evenodd;fill:#370214;}
	.st2{fill-rule:evenodd;clip-rule:evenodd;fill:#192F35;}
</style>
<g id="Page-1" class="st0">
	<g id="Desktop" transform="translate(-237.000000, 501.000000)">
		
			<g id="Group-15-Copy-2" transform="translate(890.704052, 158.154212) scale(-1, 1) rotate(110.000000) translate(-890.704052, -158.154212) translate(374.704052, -348.845788)">
			<path class="st1" d="M-60.1,845.8c2.1-4.8,4.5-9.4,6.9-13.9c5.1-9.6,9.8-19.4,15.7-28.4c4.5-6.8,10.2-12.9,16-18.7
				c14.3-14.2,27-29.5,34.8-48.3c8.5-20.5,22.3-37.8,34.5-56c10.2-15.2,24-26,39.7-35.3c16-9.5,33.5-12.7,51.2-15.9
				c8.5-1.5,17-3.7,25.6-4.9c17.2-2.5,33.8-1.1,50.5,4.7c22.2,7.8,41.6,20.3,61,33c20.2,13.2,17.8,10.3,23.7,31.7
				c2.3,8.4,7.3,16,10.9,24c0.7,1.6,0.5,3.6,1.2,5.2c1.4,3.6,2.4,7.6,4.7,10.5c3.3,4.1,7.9,7.2,11.6,11
				c10.6,10.8,17.2,23.5,16.8,39.1c-0.2,6.2-0.3,12.5-0.2,18.8c0,3.4,1,6.5,4.7,7.5c3.8,1,5-2.1,6.4-4.6c6.9-11.7,7.4-23.5,2.7-36.4
				c-5.6-15.3-13.9-28.6-23.3-41.7c-11.6-16.2-18.7-34.4-18.1-55.1c0.2-5.4-1.8-10.8-2.8-16.1c-1.3-7-3.1-14-4-21.1
				c-1.2-9.6-6.4-17.4-10.6-25.6c-0.3-0.5-0.8-1.1-1.3-1.3c-7.7-3.4-11.3-10.5-15.5-17c-9.7-14.7-20.2-28.6-33.5-40.4
				c-4.1-3.7-6.3-9.5-9.6-14.2c-1-1.4-2.7-2.6-4.2-3c-2.5-0.7-5.1-0.7-7.7-0.9c-3.4-0.3-4.7-2.3-5.1-5.8c2.9,0,5.7-0.5,8.3,0.1
				c16.6,3.8,33.3,7.5,49.8,11.8c15.2,4,28.8,11.1,38.8,23.7c9.5,11.9,21.2,21.4,33,30.9c8.9,7.1,16.6,15.7,24.5,24
				c6.7,7.1,9.5,15.8,9.4,25.6c-0.1,8.1-0.2,16.2,0.1,24.3c0.2,5.2,0.2,10.6,1.7,15.4c3,9.5,3.7,19.2,3.2,29
				c-0.9,21.8,0.6,43.1,6.5,64.3c2.3,8,1.9,16.9,1.9,25.4c0.1,8.5-4.1,15.5-9.6,21.7c-2.5,2.9-5,5.8-7.6,8.6
				c-7.7,8-9.8,17.7-8.5,28.4c0.7,5.6,1.2,11.3,2.9,16.6c1.4,4.5,3.7,9.3,6.9,12.7c8.8,9.4,12,20.6,13,32.9
				c0.5,5.8,1.6,11.5,2.9,17.1c1,4.7,3.1,5.9,8.2,5c0.8-16.5,0.7-32.9-7.6-48c-0.4-0.8-0.8-1.7-1.3-2.4c-8.6-12.2-8.7-26.2-7.2-40.1
				c1-9.8,8.1-15.7,17.2-19c2.3-0.8,4.7-1.2,7-2.1c7.5-2.8,10.4-7.3,7.2-14.6c-4.6-10.3-3.9-20.8-3.9-31.5c0-17.7,0.6-35.5-0.2-53.2
				c-0.5-11.5-3.5-22.9-4.6-34.4c-0.8-8-0.9-16.2-0.5-24.2c0.2-3.1,2.2-6.3,4.1-9c17.3-24.4,36-47.5,61.1-64.5
				c0.1-0.1,0.3-0.2,0.4-0.3c7.4-7.8,16.5-11.1,27.1-12c9.7-0.9,19.1-3.7,28.8-4.9c7.3-0.9,14.9-1.2,22.2-0.8
				c34.1,2.1,67.7,9.8,102,9.4c6.6-0.1,13.5,0.6,19.9,2.3c23.2,6.3,35.6,23,40.8,45.5c1.4,6.1,1.4,12.7,1.1,19
				c-0.3,4.9-3,6.7-7.8,6.1c-3-0.3-6-1.2-8.7-2.6c-6-3.1-11.5-7-17.5-9.9c-6.7-3.3-13.5-6.5-20.6-8.5c-11.8-3.4-23.4-0.6-33.3,5.9
				c-13.5,8.8-26.5,18.5-39.3,28.4c-12.3,9.6-24.9,18.7-39.4,24.7c-7.1,2.9-12.2,8-13.9,15.4c-2.9,12.9-5.3,26-7.3,39
				c-2.6,17.2-7.2,33.7-16.7,48.5c-15.1,23.7-37.2,35.8-64.5,39.5c-7.4,1-14.8,2-22.1,3.7c-8,1.7-14.4,6.6-20.1,12.2
				c-5.3,5.2-4.2,9.7,2.7,12.5c6,2.5,12.2,3,18.3,0.6c3-1.2,6.1-2.2,8.7-4c12.8-8.4,27.1-13,41.7-17c35.1-9.7,58-33.5,73.2-65.6
				c5.2-10.9,9.1-22.3,14-33.3c6.9-15.4,18.2-26.6,33.9-33.1c5.4-2.2,10.8-4.3,16-6.9c9.4-4.6,18.9-9.2,28-14.5
				c9-5.2,17.8-8.4,28.6-6.9c16.3,2.3,31.5-1,46-9.7c16.2-9.7,33.4-17.8,50.4-26.1c4.8-2.3,10.4-3.4,15.8-4.1
				c6.1-0.8,11.5,0.9,14.6,7c0.3,0.7,0.9,1.4,1.5,1.7c8.9,4.5,12.3,13.4,16.2,21.5c4,8.1,11.3,12.7,17.2,18.8
				c5.3,5.4,11.2,10.3,16.5,15.7c2,2.1,3.5,5,4.5,7.8c5.4,14.9,10.5,29.9,18.3,43.9c4.7,8.5,8.3,17.8,10.9,27.1
				c1.9,6.9,1.5,14.4,1.7,21.7c0.3,12.5,0.2,25,0.3,37.5c0,2.9,0,5.8,0,8.7c-0.7,0.2-1.5,0.4-2.2,0.6c-1.3-2-2.8-4-3.7-6.1
				c-6.4-15.5-13-30.9-18.9-46.6c-4.3-11.3-11.6-20-20.6-27.6c-6.9-5.8-15-5-23.1-3.3c-1.8,0.4-3.6,0.9-5.2,1.8
				c-20.7,10.9-42.4,9.1-64.4,5.5c-8.2-1.3-16.7-1.5-25.1-1.9c-22.2-1.1-44.5-2.2-66.8-3c-17.5-0.6-33.6,4.5-49.5,11.6
				c-15,6.7-30.5,12.3-45.6,18.9c-5,2.2-9.9,5.5-13.9,9.2c-6.3,5.9-11.8,12.8-17.9,19c-8.2,8.5-18.4,13.1-29.6,16.6
				c-19.9,6.3-39.6,13.1-59.2,20.2c-4.9,1.8-9.5,5-13.4,8.6c-5.4,5-5,11.8,0.1,15.5c3.2,2.3,6.2,2.4,9-0.5c1.8-1.9,3.5-3.8,5-5.9
				c8.2-11.9,19.7-16.8,33.9-17.6c10.4-0.5,20.9-2.2,31.1-4.5c12.9-3,23.4-10.2,31.1-21.2c9.4-13.5,22.5-22,37.5-28.2
				c29.8-12.3,60.8-18,92.8-18.6c13.4-0.3,26.8-1.1,40.3-1.2c11.6-0.1,23.2,0.3,34.4,4.3c7.8,2.8,14.7,7,19.2,14.2
				c5.3,8.4,12.4,12.2,22.4,10.7c5.9-0.9,10.4,1.6,13.4,6.8c1,1.7,2.2,3.4,2.8,5.2c6.2,17.4,16,32.9,24.7,49
				c6.9,12.8,11.4,25.8,9.9,41.1c-1,10.5,2,21.3,2,31.9c0,20.3-1,40.6-1.5,60.9c-0.2,9-0.2,18-0.2,27c0,17.5-0.1,35,0.1,52.4
				l-213.7,77.8c-2.4-0.4-4.9-1.3-7.1-2.3c-6.1-2.7-12-6.1-18-9c-10.7-5.2-17.4-14.4-22-24.7c-5.9-13.1-5.5-26.9-1.6-40.7
				c0.7-2.5,1-5.1,1.1-7.7c0.4-7.9,0.4-15.8,1-23.7c0.2-2.6,1.2-5.4,2.5-7.8c3.8-7.4,8.1-14.6,11.8-22.1c5.3-10.6,8.8-21.9,9.3-33.7
				c0.5-12.6,0-25.3,0.2-37.9c0-2.2,1-4.4,1.5-6.6c2.4,1.2,5.4,1.9,7.2,3.8c2,2.1,3.3,5.2,4.2,8c4.5,13.9,8.9,27.9,13,41.9
				c1.2,4,1.3,8.4,1.4,12.7c0.3,13.1,0.2,26.3,0.8,39.4c0.4,8.5,3.4,11.2,11.8,12.4c8.4,1.2,16.8,2.8,25.3,3.4
				c12.1,0.8,22.1-4.5,31-12.2c8.4-7.3,15.3-15.9,22-24.8c8-10.6,7.8-21.5,7.2-33.4c-0.8-17.7-0.8-35.3-1.3-53
				c-0.1-2.3-0.3-5.1-1.7-6.8c-4.9-6.5-11-11.8-18.6-15.2c-8.5-3.7-14.1,0-14.2,9.4c0,10.4,1.3,20.7,5.2,30.5
				c7.6,19.6,4.7,38-6.9,55.3c-0.6,0.9-1.2,1.8-1.9,2.6c-5.1,6.3-8.6,5.9-12.9-0.9c-3.8-6-7.8-12-12.4-17.4
				c-7.1-8.5-9.4-18.7-11.3-29c-2.2-11.7-3.2-23.6-5.7-35.2c-1.5-7.1-4.3-14-7.3-20.6c-1.3-2.8-4-5.4-6.7-7.1
				c-8.7-5.4-18.2-8.6-28.5-8.9c-7.9-0.3-15.9-0.2-23.8-0.1c-4.6,0-10.4,6.4-11.6,12.6c-1.4,6.8-1,13.4,2.1,19.7
				c2.7,5.5,3.6,11.3,1.5,16.9c-7.4,19.2-6.8,39.2-6.6,59.2c0.2,17.9-2.3,35.2-8.5,52.1c-2.6,7.3-4.4,14.9-6.4,22.4
				c-0.7,2.8-1,5.6-1.5,8.7c-5.2-1.1-7.1-4.9-8.7-8.9c-4.8-11.7-6.5-23.9-5.5-36.4c1.2-14.6,3.5-29.1,5.1-43.6
				c1.7-16,0.8-31.7-5.7-46.7c-4.8-11.1-12.4-18.9-24.3-21.7c-11.9-2.8-21.6-8.8-28.9-18.8c-1.3-1.8-3.1-3.4-4.8-4.9
				c-7.4-6.7-12-7.1-21.2-3.2c-4.7,2-9.9,2.9-14.8,4.5c-3.7,1.2-7.6,2.4-10.8,4.5c-3.3,2.2-2.9,5.2,0.6,7.3c2.5,1.4,5.4,2.1,8,3.4
				c5.2,2.4,10.7,4.5,15.4,7.7c7.1,4.9,14.7,7.7,22.9,9.8c7,1.7,13.9,4.6,20.2,8.2c12.6,7.1,18.8,18.8,18.7,33.1
				c-0.2,31.7,0.1,63.5-1.9,95.2c-1.7,27.8,6.4,50.5,27.5,68.4c6.4,5.4,12.9,10.8,19.9,15.4c6.4,4.2,11.8,9,16.4,14.6l-89.1,32.4
				c-9.9-8.2-17.3-18.8-23.7-30.3c-10.4-18.7-15.6-38.9-17.6-60.2c-3-31.3-1.2-62.6-1-93.9c0.1-14-0.6-28.1-0.6-42.1
				c0-7,0.9-14,0.9-21c0-13.7-10.6-22.8-24.2-20.8c-1,0.1-2.8,2.3-2.6,3c0.9,2.8,1.7,6.3,3.8,8.1c13.2,11.2,12.7,25.3,8.4,39.9
				c-5.1,17.3-9.6,34.7-12.5,52.4c-0.7,4-2.2,8-4.2,11.5c-1.1,1.9-4.2,4-5.9,3.6c-2.1-0.4-4.7-2.9-5.5-5.1
				c-1.2-3.4-1.5-7.2-1.4-10.8c0.5-15.5,0.3-31.2,2.2-46.5c1.2-9.7,5.6-18.9,8.3-28.5c1.6-5.6,2.1-11.4-1.3-16.8
				c-3.1-4.7-6.1-5.1-9.9-1.1c-1.6,1.6-3.5,3.3-4.2,5.3c-2.7,7-9.1,9.5-14.8,13c-2.7,1.7-5.2,1.4-7.3-1.1
				c-6.4-7.4-14.6-8.6-23.7-7.3c-7.5,1.1-15.1,1.7-22.6,3.1c-2.5,0.5-6.3,2.1-6.8,4c-0.9,3.2-0.9,8.6,1,10.2
				c8.6,7,10.3,16.5,11.6,26.4c0.8,6.5,1.6,13,2.2,19.5c0.5,5.9-0.8,11.4-3.5,16.8c-1.4,2.9-1.8,6.5-1.7,9.8c0.1,6-2,10.6-6.4,14.5
				c-4,3.6-7.7,7.5-11.3,11.3c-6.1,6.5-10.2,13.8-11.2,23c-0.8,7.4-3,14.6-4.1,21.9c-0.9,6.1,2.7,11,6.3,15.2
				c1.5,1.7,5.7,1.9,8.3,1.4c4.5-0.9,7.5-4.2,8.1-8.9c0.4-2.9,0.1-5.8,0.1-8.7c0-1.5-0.1-3.1-0.5-4.5c-3.4-12.6,3.2-21.4,11.5-29.4
				c4-3.8,7.2-7.7,8.2-13.3c0.9-5.3,4-9.5,7.3-13.9c7-9.2,10.8-20,13.2-31.3c1.7-7.8,0.2-15-2.2-22.4c-1.7-5.3-2.4-10.9-3.2-16.5
				c-0.2-1.3,1.1-3.9,2-4c1.5-0.3,3.3,0.8,4.8,1.6c0.7,0.4,1.3,1.3,1.6,2.2c5.9,13.5,13.1,26.7,17.3,40.8c3.3,11.2,3.2,23.4,4,35.3
				c0.7,10,0.9,20.1,0.9,30.2c0,4.7-0.9,9.3-1.5,14c-0.3,2.9-1,5.7-1.1,8.6c-0.1,18-0.2,36.1,0,54.1c0.1,5.8-1.5,10.9-5,15.3
				c-9,11.3-18,22.8-27.6,33.6c-9.2,10.4-21,16.1-35.2,15.7c-8.4-0.3-17.5,2-25-3.5c-7.6-5.5-15.3-8.9-25-9c-3.4,0-7.7-3.8-10-7
				c-3.8-5.2-6.4-11.4-9.5-17.2c-0.8-1.5-1.3-3.3-2.4-4.3c-1.1-1-2.8-1.7-4.3-1.8c-0.6,0-1.4,2-1.8,3.2c-2.6,8-5.1,16-7.5,24
				c-2.4,7.9-2,15.5,1.2,23.2c2.4,5.7,3.3,12,5.4,17.9c1.3,3.6,3,7.3,5.2,10.4c5.1,7.2,10.4,14.3,15.7,21.4l-78.4,28.5
				c-2.4-4-5.3-7.6-8.8-10.8c-6.9-6.4-5.6-14.5-5.7-22.6c-0.1-12.5,0.2-25.1-1.7-37.3c-1-6.1-5.8-12-10.1-16.9
				c-9.1-10.4-12.6-22-10.7-35.5c1.5-11.5,1.8-23.2,4.3-34.5c3.1-14.1,7.6-27.9,11.8-41.7c0.7-2.3,2.4-4.2,3.6-6.4
				c3.2-5.9,6-11.9,9.5-17.6c2.8-4.5,5.7-9.2,9.6-12.6c14.6-12.8,29.7-24.9,44.3-37.6c6.8-5.9,13.2-12.3,19-19.1
				c6.1-7.1,6.1-16.5,6.5-25.2c0.5-11.1,0.4-22.3,0-33.5c-0.2-7.4,2.7-13.3,8.4-17.4c5.4-3.9,11.6-6.7,17.4-9.9
				c2.4-1.3,5.3-2,7.3-3.7c10.2-9.2,22.4-10.1,35.2-8.8c2.9,0.3,5.8,0.8,8.7,0.4c1.8-0.2,3.5-1.7,5.2-2.6c-1.6-1.2-2.9-3-4.7-3.4
				c-8.2-1.8-16.5-3.1-24.7-4.7c-3.7-0.7-7.4-1.7-11.2-2.3c-7.3-1.2-14.2-0.6-20.9,3c-10.3,5.4-19,12.7-27,21
				c-4.9,5.1-6,11.8-7.7,18.3c-2.2,8.4-3.5,17.3-7.1,25c-4.6,9.7-8.9,20.4-19.7,25.4c-4.1,1.9-8.7,2.7-13,3.9c-3.7,1-7.5,1.5-11,2.9
				c-11.9,4.8-23.4,10.4-35.5,14.8c-10.2,3.8-19.4,24.1-18.2,33.7c1.3,10.9,1.7,21.9,1.6,32.9c0,4-2.3,8.1-4,11.9
				c-2.9,6.5-4.6,12.4-3.8,20.3c1.4,12.9,0.2,26.3-2,39.1c-2.9,16.3-8.3,32.1-12,48.3c-3.3,14.8-3,29.7,1.6,44.3
				c0.3,0.9,1,1.8,0.9,2.6c-1,9.3,4.6,17,6.3,25.5c1.3,6.6,0.8,13.6,0.4,20.5l-76.2-209.4c-4.6-20-4.9-40.3-3-60.9
				c0.5-5.7,3.3-11.4,6.1-16.5c5.4-9.9,12-19.2,17.1-29.2c6.8-13,15.9-23,29.8-28.3c8.4-3.2,14.5-9.5,20.3-16
				c9.7-10.9,20-20.6,33.6-27.1c8.8-4.2,16.1-12,25-15.9c10.3-4.5,18.5-12.6,30-15.1c13.8-3,26.9-9.2,40.8-11.7
				c19.2-3.4,38.1-1,56.1,7.8c12.5,6.1,25,11.9,36.5,19.9c4.9,3.4,8.3,7.5,8.7,13.7c0.2,2.3,0.4,4.6,0.6,6.8c0.4,4.4,3,7.3,6.8,9.1
				c5.1,2.5,7.2,0.4,8.1-5.1c1.9-12.5-3.7-22.6-9.2-32.7c-5.7-10.4-12.3-20.4-18.8-30.3c-4.6-7-12.4-8.1-19.8-8.9
				c-15.8-1.8-31.6-3-47.4-4.7c-9.8-1.1-19.6-3.2-29.4-4.4c-17.7-2.3-34.9-1.2-51.5,6.4c-20.3,9.3-40.2,18.8-59.2,30.9
				c-17.4,11.1-35.5,21.5-55.3,28.4c-8.9,3.1-14.8,9.6-20.3,17.1c-4.6,6.5-10.6,12-15.9,17.9c-1.7,1.9-3.8,3.7-4.8,6
				c-4.8,10.3-9.2,20.9-14.1,31.2c-2.1,4.5-4.4,9-6.7,13.4L-27,936.6c6.1-16.2,15.5-30.9,27.7-44.4c11.6-12.8,19.1-28.3,27.9-42.9
				c15.7-26.3,37-46.1,67.2-54.7c14.9-4.3,30-8,45-12.2c11.9-3.3,23.6-7.4,35.5-10.4c14-3.5,27.6-2.4,40.1,5.7
				c10.5,6.9,22.8,9.3,34.3,13.8c8.6,3.4,17,7.5,25,12.2c10,5.7,17.8,13.9,22.8,24.5c9.9,21.3,26.2,36.1,47.2,46
				c4.8,2.3,7.5,6.4,8.8,11.2c2.6,10,6.7,19.1,12.6,27.7c2.6,3.8,2.8,9.2,4.1,13.9c1.1,4.3,1.9,8.7,3.4,12.8
				c0.8,2.2,2.4,4.3,4.3,5.7c2.8,2.2,4.9,1.1,4.9-2.5c0-16.8-1.9-33-14-46.1c-6.2-6.7-9.5-14.9-11-23.8c-1.6-10.1-6.3-18-15.1-23.4
				c-2.2-1.3-4.2-3.1-6.3-4.6c-13.1-8.8-22.3-20.4-27.4-35.6c-2.9-8.8-7.5-17-11.3-25.5c-1.6-3.5-4.1-5.1-8-4.7
				c-6.1,0.6-10.7-2.3-15.3-5.9c-13.6-10.7-27-21.6-41.2-31.2c-8.4-5.7-17.8-10.5-27.4-13.5c-16.6-5.1-33.2-5.9-49.6,3
				c-19.9,10.8-40.7,19.7-63.6,22.2c-5.4,0.6-11,0.5-16.5,0.5c-15.5,0.1-29.5,4.4-42.3,13.5c-27.6,19.5-50.3,44-71.8,69.6
				c-6.2,7.3-11.9,15-17.7,22.7L-60.1,845.8z"/>
			<path id="Fill-3" class="st2" d="M-93.9,598.8c1.1-2.4,1.8-5.1,3.5-7c6.8-7.9,13.7-15.7,20.9-23.3c1.7-1.8,4.2-3,6.5-4.2
				c26.4-13.7,55-21.1,83.5-28.6c12.8-3.4,25.4-7.9,38.9-8c9.9-0.1,19.9,0.1,29.8,0.2c14.1,0.1,28.2,0.5,42.2,0.3
				c24.5-0.5,46.6,6.9,67.5,19.1c4.9,2.8,10,5.6,15.3,7.1c10.2,3,15.6,10.7,20.8,19c3.1,4.8,6.7,9.3,10.2,13.9c1.2,1.6,3,3,3.4,4.7
				c2.3,10.7,9.8,18.6,14.9,27.8c1,1.7,1.1,3.9,1.6,5.9c-2,0.3-4.2,1.4-5.9,0.9c-3.4-1.2-6.8-2.8-9.6-5
				c-16.8-13.7-35.6-22.9-56.9-27.2c-1.5-0.3-3.1-0.4-4.4-1c-14.2-6.8-29.3-5-44.2-4.2c-10,0.6-19.7,0.5-29.4-2.6
				c-4.6-1.5-9.6-1.7-14.4-2.1c-19.8-1.5-39.6-2.6-59.4-4.3c-5.9-0.5-11.6-2.5-17.5-3.6c-10.7-2.1-21.3-0.1-31.8,1.8
				c-15.3,2.8-30.7,3.4-46.1,3.1c-2.1,0-4.5,0.1-6.2,1c-9.6,4.9-19.1,10.1-28.7,15.2c-1,0.6-2,1.2-3,1.8
				C-92.9,599.5-93.4,599.1-93.9,598.8L-93.9,598.8z"/>
			<path id="Fill-5" class="st2" d="M547.1,508.4c-13.1-0.7-25.9-1.2-38.7-2.2c-6.1-0.5-11,1-15.2,5.5c-9.4,10.1-20.5,17.9-33,23.6
				c-20.1,9-29.8,26.2-36.9,45.6c-0.6,1.7-0.8,3.7-1.7,5.2c-0.9,1.4-2.4,3.4-3.7,3.4c-1.6,0-3.7-1.4-4.6-2.8
				c-3.7-5.7-3.1-12.3-2.5-18.7c1-10.8,5.3-20.7,10.9-29.8c4.3-7.1,7.6-14.4,9-22.7c2-12.6,9.3-21.6,21.2-26.1
				c17.3-6.4,34.6-13.1,52.4-17.8c14.8-3.8,30.4-4.6,45.6-7.2c6.6-1.1,12.9-4,19.7-2.6c2.3,0.5,5.3,1,6.5,2.6
				c8.9,11.3,20.8,19.3,32,28c4.1,3.2,8.2,6.4,12,9.9c3.3,3,3,4.9-1.1,6.8c-8.6,3.9-17.1,4.6-26,0.1c-3.6-1.9-8.2-2.7-12.3-2.6
				C569.5,506.8,558.2,507.8,547.1,508.4L547.1,508.4z"/>
			<path class="st2" d="M-34.6,915.8c0,0,0-0.1,0.1-0.1c7-10.3,12.6-21.5,19.3-33c-4,1.9-8.1,3-11.2,5.4c-4.8,3.7-9.5,7.4-14.2,11.2
				L-34.6,915.8z"/>
			<path id="Fill-11" class="st1" d="M287.9,419.9c3.6,1.8,6.3,2.8,8.6,4.4c14.7,9.8,29.1,20,45.2,27.7c3.7,1.8,6.8,4.6,10.2,7
				c5.7,4.1,8.6,9.8,10.7,16.4c2.8,8.8,7,17.1,10.2,25.8c1.7,4.8,3.5,9.8,3.8,14.8c0.6,10.9,0.2,21.9,0.2,32.9c0,4.2-1.7,5.1-5.4,3
				c-1.6-0.9-3-2.1-4.1-3.5c-12.7-16.1-25.3-32.3-38.1-48.4c-7.6-9.6-11-21-13.5-32.6c-2.1-10.1-6.5-18.5-15.3-24.4
				c-6.1-4.1-9.2-10.4-11.5-17.2C288.3,424.4,288.3,422.8,287.9,419.9L287.9,419.9z"/>
			<path id="Fill-13" class="st1" d="M898.7,653.7c-1.1-0.3-2.4-0.3-3-0.9c-7.9-8.7-18.3-11.7-29.3-12c-11.6-0.3-22.3-3.4-32.8-7.8
				c-8.5-3.5-17.1-3.7-25.7-2.2c-13.5,2.3-26.9,5.4-40.2,8.9c-5.2,1.4-9.9,4.6-14.7,7c-4.1,2.1-8,4.5-12.1,6.6c-2.9,1.4-4.8,1-5-3.1
				c-0.2-5.2,1.2-9.4,4.8-13.4c4-4.4,7-9.7,11-14.2c1.7-1.9,4.8-3.8,7.2-3.6c11.6,0.7,21.9-2,32.6-6.8c14.2-6.5,29.3-10.4,45.2-10.2
				c7.1,0.1,13.7,1.5,19.6,5.4c6.8,4.4,13.4,9.2,20,13.8c2.9,2,5.6,4.5,8.8,5.8c11.4,4.5,12.5,14.5,13.8,24.5
				C899.2,652.1,898.9,652.7,898.7,653.7L898.7,653.7z"/>
		</g>
	</g>
</g>
</svg>
